<svg xmlns="http://www.w3.org/2000/svg" viewBox="0 0 500 500"><g id="freepik--background-complete--inject-30"><path d="M116.6,136.18c-.38,1.28-6.92,11.58-16.34,15.08s-16.43,7.38-13.82,12,14.2,2.1,14.2,2.1-23.49,25.53-1.38,40.12c27,17.79,55.14-45.89,55.14-45.89Z" style="fill:#ebebeb"></path><path d="M150,168.32c-.07.12-9-5.18-19.85-11.83s-19.66-12.15-19.59-12.27,9,5.18,19.86,11.83S150,168.2,150,168.32Z" style="fill:#e0e0e0"></path><path d="M145.79,176c-.07.12-9.68-5.52-21.45-12.59s-21.25-12.9-21.18-13,9.67,5.51,21.45,12.58S145.86,175.83,145.79,176Z" style="fill:#e0e0e0"></path><path d="M140.75,183.19c-.07.12-10.85-6.22-24.08-14.16s-23.89-14.49-23.82-14.61,10.86,6.22,24.08,14.17S140.82,183.07,140.75,183.19Z" style="fill:#e0e0e0"></path><path d="M134.46,192.15c-.07.12-8.43-5-18.66-11.38S97.33,169.07,97.41,169s8.43,5,18.66,11.38S134.54,192,134.46,192.15Z" style="fill:#e0e0e0"></path><path d="M127.07,200.79c-.08.12-7.86-4.9-17.38-11.21S92.52,178.06,92.6,177.94s7.85,4.91,17.38,11.22S127.15,200.68,127.07,200.79Z" style="fill:#e0e0e0"></path><path d="M117.63,206.79a6.13,6.13,0,0,1-1.17-.55c-.75-.39-1.81-1-3.11-1.7-2.61-1.47-6.16-3.58-10-6s-7.24-4.81-9.66-6.57c-1.21-.88-2.18-1.6-2.84-2.12a7.56,7.56,0,0,1-1-.83,5.92,5.92,0,0,1,1.11.67l2.93,2c2.48,1.68,5.9,4,9.74,6.44s7.35,4.61,9.91,6.16l3,1.84A6.2,6.2,0,0,1,117.63,206.79Z" style="fill:#e0e0e0"></path><path d="M95.52,165.93a15.86,15.86,0,0,1-5.21-2.39,15.84,15.84,0,0,1-4.37-3.71c.11-.11,2,1.61,4.65,3.28S95.58,165.79,95.52,165.93Z" style="fill:#e0e0e0"></path><path d="M152.65,158.25a3.15,3.15,0,0,1-.34.55l-1.05,1.53c-.91,1.32-2.27,3.21-4,5.53-3.39,4.64-8.16,11-13.62,17.86s-10.55,12.95-14.31,17.3c-1.88,2.18-3.41,3.92-4.49,5.12l-1.25,1.36a3.08,3.08,0,0,1-.46.46,3.1,3.1,0,0,1,.39-.53l1.17-1.42,4.37-5.22c3.68-4.41,8.73-10.53,14.18-17.39s10.27-13.17,13.73-17.75l4.09-5.44c.47-.6.84-1.09,1.13-1.47A2.74,2.74,0,0,1,152.65,158.25Z" style="fill:#e0e0e0"></path><path d="M145,152.8c.11.09-9.26,12.31-20.92,27.3s-21.21,27.06-21.32,27,9.25-12.31,20.92-27.3S144.89,152.72,145,152.8Z" style="fill:#e0e0e0"></path><path d="M134.34,146.76a3,3,0,0,1-.3.61l-1,1.69c-.85,1.46-2.11,3.54-3.76,6.08-3.27,5.07-8.14,11.85-13.88,19.05s-11.15,13.54-15.07,18.12l-4.66,5.41-1.29,1.46a3,3,0,0,1-.47.48,3.39,3.39,0,0,1,.4-.55l1.21-1.51,4.54-5.52c3.84-4.65,9.22-11,14.94-18.21s10.64-13.92,14-18.93c1.68-2.5,3-4.56,3.89-6l1-1.64A3.57,3.57,0,0,1,134.34,146.76Z" style="fill:#e0e0e0"></path><path d="M125.6,141.75c.11.09-7.87,10.65-17.83,23.6s-18.12,23.37-18.23,23.28S97.41,178,107.37,165,125.48,141.66,125.6,141.75Z" style="fill:#e0e0e0"></path><path d="M119,137.46a10.24,10.24,0,0,1-.83,1.41c-.28.45-.64,1-1.09,1.6s-.93,1.31-1.53,2a56.54,56.54,0,0,1-4.44,4.95,61.59,61.59,0,0,1-6.2,5.28A60.86,60.86,0,0,1,98,157.06a56.61,56.61,0,0,1-6,2.76c-.88.36-1.7.61-2.41.85s-1.33.43-1.84.56a10.18,10.18,0,0,1-1.6.38,10.59,10.59,0,0,1,1.54-.57c.5-.16,1.11-.37,1.81-.64s1.5-.54,2.36-.92a59.3,59.3,0,0,0,6-2.84,65.17,65.17,0,0,0,6.81-4.33,60.35,60.35,0,0,0,10.66-10c.62-.71,1.12-1.4,1.58-2s.85-1.11,1.15-1.54A14.18,14.18,0,0,1,119,137.46Z" style="fill:#e0e0e0"></path><rect x="39.36" y="123.39" width="125.41" height="13.24" style="fill:#e0e0e0"></rect><path d="M79.11,136.18c-.38,1.28-6.91,11.58-16.33,15.08s-16.44,7.38-13.82,12,14.19,2.1,14.19,2.1-23.48,25.53-1.37,40.12c27,17.79,55.14-45.89,55.14-45.89Z" style="fill:#f5f5f5"></path><path d="M112.48,168.32c-.07.12-9-5.18-19.85-11.83S73,144.34,73,144.22s9,5.18,19.85,11.83S112.55,168.2,112.48,168.32Z" style="fill:#e0e0e0"></path><path d="M108.31,176c-.08.12-9.68-5.52-21.45-12.59s-21.25-12.9-21.18-13,9.67,5.51,21.44,12.58S108.38,175.83,108.31,176Z" style="fill:#e0e0e0"></path><path d="M103.27,183.19c-.08.12-10.86-6.22-24.08-14.16S55.3,154.54,55.37,154.42s10.85,6.22,24.08,14.17S103.34,183.07,103.27,183.19Z" style="fill:#e0e0e0"></path><path d="M97,192.15c-.08.12-8.43-5-18.66-11.38S59.85,169.07,59.92,169s8.43,5,18.67,11.38S97.05,192,97,192.15Z" style="fill:#e0e0e0"></path><path d="M89.59,200.79c-.08.12-7.86-4.9-17.38-11.21S55,178.06,55.11,177.94s7.86,4.91,17.38,11.22S89.66,200.68,89.59,200.79Z" style="fill:#e0e0e0"></path><path d="M80.15,206.79a6,6,0,0,1-1.18-.55c-.74-.39-1.8-1-3.11-1.7-2.6-1.47-6.16-3.58-10-6s-7.24-4.81-9.67-6.57c-1.21-.88-2.18-1.6-2.84-2.12a7,7,0,0,1-1-.83,6.33,6.33,0,0,1,1.11.67l2.93,2c2.47,1.68,5.9,4,9.74,6.44s7.35,4.61,9.91,6.16l3,1.84A6.77,6.77,0,0,1,80.15,206.79Z" style="fill:#e0e0e0"></path><path d="M58,165.93a15.86,15.86,0,0,1-5.21-2.39,15.84,15.84,0,0,1-4.37-3.71c.11-.11,2,1.61,4.64,3.28S58.1,165.79,58,165.93Z" style="fill:#e0e0e0"></path><path d="M115.17,158.25a4.23,4.23,0,0,1-.34.55l-1,1.53c-.92,1.32-2.27,3.21-4,5.53-3.39,4.64-8.17,11-13.62,17.86S85.65,196.67,81.89,201c-1.88,2.18-3.41,3.92-4.49,5.12l-1.25,1.36a3.8,3.8,0,0,1-.46.46,3.32,3.32,0,0,1,.38-.53c.31-.36.7-.84,1.18-1.42l4.36-5.22c3.69-4.41,8.74-10.53,14.19-17.39s10.27-13.17,13.73-17.75l4.09-5.44,1.13-1.47A2.74,2.74,0,0,1,115.17,158.25Z" style="fill:#e0e0e0"></path><path d="M107.52,152.8c.11.09-9.25,12.31-20.91,27.3s-21.21,27.06-21.32,27,9.25-12.31,20.91-27.3S107.41,152.72,107.52,152.8Z" style="fill:#e0e0e0"></path><path d="M96.86,146.76a3,3,0,0,1-.3.61c-.25.43-.57,1-1,1.69-.85,1.46-2.12,3.54-3.76,6.08C88.57,160.21,83.7,167,78,174.19S66.8,187.73,62.89,192.31l-4.66,5.41-1.29,1.46a3.7,3.7,0,0,1-.47.48,2.88,2.88,0,0,1,.39-.55l1.22-1.51,4.53-5.52c3.85-4.65,9.22-11,15-18.21s10.63-13.92,14-18.93c1.68-2.5,3-4.56,3.89-6l1-1.64A3.57,3.57,0,0,1,96.86,146.76Z" style="fill:#e0e0e0"></path><path d="M88.11,141.75c.11.09-7.87,10.65-17.82,23.6s-18.12,23.37-18.23,23.28S59.92,178,69.88,165,88,141.66,88.11,141.75Z" style="fill:#e0e0e0"></path><path d="M81.53,137.46a9.84,9.84,0,0,1-.84,1.41c-.28.45-.63,1-1.08,1.6s-.93,1.31-1.54,2a53.47,53.47,0,0,1-4.44,4.95,61.42,61.42,0,0,1-6.19,5.28,61.76,61.76,0,0,1-6.89,4.33,55.8,55.8,0,0,1-6,2.76c-.87.36-1.69.61-2.4.85s-1.33.43-1.84.56a10.18,10.18,0,0,1-1.6.38A10,10,0,0,1,50.2,161c.5-.16,1.11-.37,1.81-.64s1.5-.54,2.36-.92a60.35,60.35,0,0,0,6-2.84,65.17,65.17,0,0,0,6.81-4.33,64.33,64.33,0,0,0,6.16-5.2,61.51,61.51,0,0,0,4.49-4.83c.62-.71,1.12-1.4,1.59-2s.84-1.11,1.15-1.54A12.24,12.24,0,0,1,81.53,137.46Z" style="fill:#e0e0e0"></path><rect x="98.12" y="57.14" width="8.02" height="8.02" style="fill:#e0e0e0"></rect><rect x="64.94" y="75.83" width="74.75" height="47.18" style="fill:#f5f5f5"></rect><path d="M64.94,75.83s11.45-11.95,40.14-11.48,34.61,11.48,34.61,11.48Z" style="fill:#f5f5f5"></path><path d="M139.4,76.6c0,.14-16.8.25-37.52.25s-37.54-.11-37.54-.25,16.8-.26,37.54-.26S139.4,76.46,139.4,76.6Z" style="fill:#e0e0e0"></path><path d="M139.4,76.6h16.83A2.76,2.76,0,0,1,159,79.36v.93a2.76,2.76,0,0,1-2.76,2.76H139.4a0,0,0,0,1,0,0V76.6A0,0,0,0,1,139.4,76.6Z" style="fill:#e0e0e0"></path><path d="M45.63,76.6H62.46a2.76,2.76,0,0,1,2.76,2.76v.93a2.76,2.76,0,0,1-2.76,2.76H45.63a0,0,0,0,1,0,0V76.6A0,0,0,0,1,45.63,76.6Z" transform="translate(110.85 159.65) rotate(180)" style="fill:#e0e0e0"></path><rect x="92.2" y="54.83" width="20.23" height="4.62" rx="1.98" style="fill:#e0e0e0"></rect><rect x="34.92" y="362.08" width="431.75" height="115.82" style="fill:#f5f5f5"></rect><rect x="29.43" y="357.27" width="440.23" height="14.09" style="fill:#e0e0e0"></rect><rect x="51.99" y="390.26" width="113.56" height="35.07" style="fill:#ebebeb"></rect><circle cx="108.77" cy="407.79" r="2.93" style="fill:#e0e0e0"></circle><rect x="51.99" y="432.72" width="113.56" height="35.07" style="fill:#ebebeb"></rect><circle cx="108.77" cy="450.26" r="2.93" style="fill:#e0e0e0"></circle><rect x="330.16" y="390.26" width="113.56" height="35.07" style="fill:#ebebeb"></rect><circle cx="386.94" cy="407.79" r="2.93" style="fill:#e0e0e0"></circle><rect x="330.16" y="432.72" width="113.56" height="35.07" style="fill:#ebebeb"></rect><circle cx="386.94" cy="450.26" r="2.93" style="fill:#e0e0e0"></circle><path d="M169.08,478.1s0-.52,0-1.54l0-4.57c0-4,0-9.95,0-17.55,0-15.25-.07-37.23-.11-64.18v-.2h.2L317.35,390h.27v.26c0,31.1,0,60.8,0,87.84v.24h-.24l-106.84-.12L180,478.16l-8.1,0-2.08,0h-.7l.73,0h2.1l8.16,0,30.61-.06,106.68-.12-.24.24c0-27,0-56.74,0-87.84l.26.26h0l-148.27-.06.2-.2c0,26.9-.08,48.84-.1,64.06,0,7.61,0,13.55-.05,17.59l0,4.6C169.1,477.55,169.08,478.1,169.08,478.1Z" style="fill:#ebebeb"></path><path d="M102.24,315.21a11.09,11.09,0,1,1-11.08-11.08A11.08,11.08,0,0,1,102.24,315.21Z" style="fill:#e0e0e0"></path><circle cx="112.79" cy="315.03" r="11.09" style="fill:#f5f5f5"></circle><circle cx="69.52" cy="315.03" r="11.09" style="fill:#f5f5f5"></circle><path d="M54.79,317.42h72.42s-.75,29.86-20.19,33.51l-.31,6.34H74.1v-6.45S54.79,345.87,54.79,317.42Z" style="fill:#ebebeb"></path><path d="M107,350.93c0,.11-7.39.19-16.51.19S74,351,74,350.93s7.39-.19,16.51-.19S107,350.83,107,350.93Z" style="fill:#fff"></path><path d="M124.4,332.8s-.15,0-.46.06l-1.37.12a18.19,18.19,0,0,1-5.25-.26,10.69,10.69,0,0,1-3.55-1.41,8.09,8.09,0,0,1-3-3.38,6.11,6.11,0,0,1-.51-2.5,4.44,4.44,0,0,1,.92-2.55,3.11,3.11,0,0,1,1.13-.9,2.66,2.66,0,0,1,1.48-.2,3.51,3.51,0,0,1,2.42,1.78,4.71,4.71,0,0,1,.42,3.14,8.7,8.7,0,0,1-1.25,3.07,10.89,10.89,0,0,1-5.39,4.36,10.43,10.43,0,0,1-7.4-.08A11.12,11.12,0,0,1,99.23,332,7.39,7.39,0,0,1,97,328.66a3.61,3.61,0,0,1,0-2.11,2.77,2.77,0,0,1,1.33-1.69,3.46,3.46,0,0,1,4,.92,7.55,7.55,0,0,1,1.69,4,12.13,12.13,0,0,1-.13,4.41,12.9,12.9,0,0,1-4.68,7.58,11.71,11.71,0,0,1-4.16,2,13.19,13.19,0,0,1-4.69.32,12.41,12.41,0,0,1-8.13-4.22,8.78,8.78,0,0,1-2-4.11,5.88,5.88,0,0,1,.92-4.38,4.48,4.48,0,0,1,3.82-2.1,4.19,4.19,0,0,1,3.56,2.36,3.13,3.13,0,0,1,.15,2.19,4.27,4.27,0,0,1-1.14,1.82,8.29,8.29,0,0,1-3.68,1.93,15.1,15.1,0,0,1-14.4-3.6,8.32,8.32,0,0,1-2-3,5.87,5.87,0,0,1-.2-3.44,4.87,4.87,0,0,1,1.78-2.79,4.21,4.21,0,0,1,3.07-.75,4.1,4.1,0,0,1,2.65,1.46,4.38,4.38,0,0,1,1,2.69,4.33,4.33,0,0,1-.85,2.57A6.37,6.37,0,0,1,73,332.44a15.13,15.13,0,0,1-4.25,1.6,27.94,27.94,0,0,1-3.76.62,25.45,25.45,0,0,1-5.27,0,18.06,18.06,0,0,1-1.81-.27l.46.05,1.36.15a27.94,27.94,0,0,0,5.25,0,26.79,26.79,0,0,0,3.73-.66,14.7,14.7,0,0,0,4.18-1.6,6.36,6.36,0,0,0,1.84-1.64,4.06,4.06,0,0,0,.79-2.43,4.17,4.17,0,0,0-.94-2.54,3.77,3.77,0,0,0-2.48-1.35,3.94,3.94,0,0,0-2.87.7,4.62,4.62,0,0,0-1.67,2.64,5.64,5.64,0,0,0,.2,3.27,8.1,8.1,0,0,0,1.89,2.88,14.84,14.84,0,0,0,14.09,3.49,8,8,0,0,0,3.52-1.85,3.92,3.92,0,0,0,1-1.67,2.82,2.82,0,0,0-.14-1.94,3.84,3.84,0,0,0-3.25-2.15,3.55,3.55,0,0,0-2,.51,4.75,4.75,0,0,0-1.52,1.44,5.52,5.52,0,0,0-.87,4.11,8.43,8.43,0,0,0,1.92,3.93,12,12,0,0,0,7.89,4.08,12.83,12.83,0,0,0,4.54-.3,11.48,11.48,0,0,0,4-2,12.61,12.61,0,0,0,4.55-7.37,11.59,11.59,0,0,0,.13-4.27,7.2,7.2,0,0,0-1.59-3.81,3.11,3.11,0,0,0-3.6-.84,2.45,2.45,0,0,0-1.16,1.47,3.39,3.39,0,0,0,0,1.92,7.19,7.19,0,0,0,2.18,3.18,10.7,10.7,0,0,0,3.25,2,10.13,10.13,0,0,0,7.17.09,10.68,10.68,0,0,0,5.26-4.21,8.77,8.77,0,0,0,1.22-3,4.46,4.46,0,0,0-.38-3,3.28,3.28,0,0,0-2.23-1.66,2.44,2.44,0,0,0-1.34.17,2.9,2.9,0,0,0-1,.83,4.16,4.16,0,0,0-.88,2.41,5.68,5.68,0,0,0,.47,2.4,8,8,0,0,0,2.91,3.32,10.45,10.45,0,0,0,3.48,1.42,18.41,18.41,0,0,0,5.22.32l1.36-.08Z" style="fill:#fff"></path><rect x="308.19" y="17.14" width="77.21" height="58.94" style="fill:#f5f5f5"></rect><polygon points="216.91 140.4 308.19 76.08 385.4 76.08 480.61 140.4 480.61 149.36 216.91 149.36 216.91 140.4" style="fill:#f5f5f5"></polygon><rect x="216.91" y="140.4" width="263.7" height="8.97" style="fill:#ebebeb"></rect><polygon points="324.47 76.65 285.04 140.4 350.58 140.4 338.94 76.65 338.94 17.14 324.15 17.14 324.47 76.65" style="fill:#fafafa"></polygon><path d="M384.3,76.65c0,.14-17.28.26-38.6.26s-38.61-.12-38.61-.26,17.28-.26,38.61-.26S384.3,76.51,384.3,76.65Z" style="fill:#e0e0e0"></path><rect x="7.94" y="227.68" width="26.98" height="26.98" style="fill:#fafafa"></rect><rect x="7.94" y="257.91" width="26.98" height="26.98" style="fill:#fafafa"></rect><rect x="38.34" y="227.68" width="26.98" height="26.98" style="fill:#fafafa"></rect><rect x="38.34" y="257.91" width="26.98" height="26.98" style="fill:#fafafa"></rect><rect x="68.75" y="227.68" width="26.98" height="26.98" style="fill:#fafafa"></rect><rect x="68.75" y="257.91" width="26.98" height="26.98" style="fill:#fafafa"></rect><rect x="99.15" y="227.68" width="26.98" height="26.98" style="fill:#fafafa"></rect><rect x="99.15" y="257.91" width="26.98" height="26.98" style="fill:#fafafa"></rect><rect x="129.09" y="227.68" width="26.98" height="26.98" style="fill:#fafafa"></rect><rect x="129.09" y="257.91" width="26.98" height="26.98" style="fill:#fafafa"></rect><rect x="159.49" y="227.68" width="26.98" height="26.98" style="fill:#fafafa"></rect><rect x="159.49" y="257.91" width="26.98" height="26.98" style="fill:#fafafa"></rect><rect x="189.9" y="227.68" width="26.98" height="26.98" style="fill:#fafafa"></rect><rect x="189.9" y="257.91" width="26.98" height="26.98" style="fill:#fafafa"></rect><rect x="220.3" y="227.68" width="26.98" height="26.98" style="fill:#fafafa"></rect><rect x="220.3" y="257.91" width="26.98" height="26.98" style="fill:#fafafa"></rect><rect x="250.24" y="227.68" width="26.98" height="26.98" style="fill:#fafafa"></rect><rect x="250.24" y="257.91" width="26.98" height="26.98" style="fill:#fafafa"></rect><rect x="280.65" y="227.68" width="26.98" height="26.98" style="fill:#fafafa"></rect><rect x="280.65" y="257.91" width="26.98" height="26.98" style="fill:#fafafa"></rect><rect x="311.05" y="227.68" width="26.98" height="26.98" style="fill:#fafafa"></rect><rect x="311.05" y="257.91" width="26.98" height="26.98" style="fill:#fafafa"></rect><rect x="341.45" y="227.68" width="26.98" height="26.98" style="fill:#fafafa"></rect><rect x="341.45" y="257.91" width="26.98" height="26.98" style="fill:#fafafa"></rect><rect x="371.39" y="227.68" width="26.98" height="26.98" style="fill:#fafafa"></rect><rect x="371.39" y="257.91" width="26.98" height="26.98" style="fill:#fafafa"></rect><rect x="401.8" y="227.68" width="26.98" height="26.98" style="fill:#fafafa"></rect><rect x="401.8" y="257.91" width="26.98" height="26.98" style="fill:#fafafa"></rect><rect x="432.2" y="227.68" width="26.98" height="26.98" style="fill:#fafafa"></rect><rect x="432.2" y="257.91" width="26.98" height="26.98" style="fill:#fafafa"></rect><rect x="462.61" y="227.68" width="26.98" height="26.98" style="fill:#fafafa"></rect><rect x="462.61" y="257.91" width="26.98" height="26.98" style="fill:#fafafa"></rect></g><g id="freepik--Table--inject-30"><path d="M468.62,477.9c0,.14-97.89.26-218.61.26S31.38,478,31.38,477.9s97.86-.26,218.63-.26S468.62,477.76,468.62,477.9Z" style="fill:#263238"></path></g><g id="freepik--speech-bubble--inject-30"><path d="M272.66,148.58l9.36-.05a29.94,29.94,0,1,0-5-9.47h0Z" style="fill:#fff"></path><path d="M272.66,148.58s.11-.21.3-.63l.85-1.82c.75-1.61,1.85-4,3.27-7l-.16,0h0a.1.1,0,0,0,.13,0,.11.11,0,0,0,0-.11,29.81,29.81,0,0,1-.81-14.69,29.48,29.48,0,0,1,1.24-4.43,33.2,33.2,0,0,1,2.1-4.46,29.58,29.58,0,0,1,17.16-13.75,29.57,29.57,0,0,1,34.57,14,29.5,29.5,0,0,1,3.72,13.79,30.26,30.26,0,0,1-2.86,13.34,29.19,29.19,0,0,1-7.92,10.12,29.78,29.78,0,0,1-21.28,6.7l-1.26-.13a7.27,7.27,0,0,1-1.24-.18l-2.4-.48a40.32,40.32,0,0,1-4.39-1.48,29.79,29.79,0,0,1-11.64-8.87.09.09,0,0,0-.07,0l-6.93.09-1.81,0-.62,0H275l7,0-.07,0a29.7,29.7,0,0,0,11.67,9,43.36,43.36,0,0,0,4.43,1.52l2.42.5a7.24,7.24,0,0,0,1.25.18l1.28.13a30.07,30.07,0,0,0,10.88-1.09,30.41,30.41,0,0,0,10.66-5.62,29.47,29.47,0,0,0,8-10.25,30.49,30.49,0,0,0,2.91-13.52,29.85,29.85,0,0,0-3.76-14,15.36,15.36,0,0,0-.94-1.56l-1-1.51L328.67,111a12.69,12.69,0,0,0-1.17-1.36l-1.25-1.28c-.4-.44-.89-.78-1.33-1.18s-.89-.78-1.36-1.12l-1.45-1a29.6,29.6,0,0,0-12.69-4.78A30.17,30.17,0,0,0,286.24,107a29.81,29.81,0,0,0-6.89,8.32,33.17,33.17,0,0,0-2.1,4.51,28.84,28.84,0,0,0-1.23,4.48,29.75,29.75,0,0,0,.9,14.8l.17-.08h0a.09.09,0,0,0-.13,0,.08.08,0,0,0,0,0l-3.19,7.15c-.35.79-.62,1.4-.8,1.82S272.66,148.58,272.66,148.58Z" style="fill:#263238"></path><polygon points="290.26 131.33 294.43 126.72 303.27 133.82 316.41 118.73 320.71 122.92 303.07 142.32 290.26 131.33" style="fill:#009427"></polygon></g><g id="freepik--Character--inject-30"><path d="M243.09,145.48,167.69,150c-4.69,16.74-5.37,32.9-.24,49.48,1.47,4.73,3.63,9.73,8.6,12.48,4.45,2.46,10.23,2.61,15.65,2.55a368.86,368.86,0,0,0,77.87-9.14c-5-2.77-7.86-7.84-7.2-12.73,2.15,4.78,8.28,8.06,14.6,8.26a22.35,22.35,0,0,0,16.44-6.54C272,184.57,243.6,165.41,243.09,145.48Z" style="fill:#263238"></path><path d="M293,177.13a2.48,2.48,0,0,1-.65,0c-.43,0-1.06,0-1.88-.06-1.63-.08-4-.26-6.88-.65a61.27,61.27,0,0,1-21.62-7A44.79,44.79,0,0,1,252,161.8a38.19,38.19,0,0,1-6.12-8.23,31.74,31.74,0,0,1-2.67-6.38,16.56,16.56,0,0,1-.46-1.82,5.1,5.1,0,0,1-.12-.64s.27.86.77,2.4a34.21,34.21,0,0,0,2.81,6.26,38.81,38.81,0,0,0,6.14,8.08,45.21,45.21,0,0,0,9.85,7.56,63.22,63.22,0,0,0,21.42,7c2.87.44,5.21.68,6.84.82l1.86.16A3.16,3.16,0,0,1,293,177.13Z" style="fill:#263238"></path><path d="M306,323c-.27.07-22.23-6.91-22.23-6.91l-6.91,5.45,18.83,8.18s8.31.95,12.3,3.3S306,323,306,323Z" style="fill:#263238"></path><path d="M302.64,324.36a5,5,0,0,0,.14.61c.64,2.29,3.77,10.47,16.77,15.19,15.22,5.52,48.4,7.06,53.9,6.2,10.66-1.68,20.61-10,20.2-12.07" style="fill:#263238"></path><path d="M393.65,334.29c-.37,3.38-21,3.9-46.18,1.16s-45.2-7.71-44.83-11.09,21-3.91,46.17-1.16S394,330.9,393.65,334.29Z" style="fill:#455a64"></path><path d="M361.73,331.93c1.67-1.68,4-2.68,2.8-4.63-.34.66-2,.65-2.59,1.16s-2.19-.1-3-.31a2,2,0,0,1-1.45-2.13,5.35,5.35,0,0,1,1.08-2.47c1-1.57,2.14-3.1,3.3-4.61a4.15,4.15,0,0,0,.95-1.77,1.42,1.42,0,0,0-1-1.6A2.55,2.55,0,0,0,360,316c-2.49,1.41-4.93,3.2-5.84,5.67-.57,1.55-.49,3.26-1.19,4.78s-2.69,2.82-4.37,2.09a3.52,3.52,0,0,1-1.79-2.47,7.26,7.26,0,0,0-1.1-2.84,2.39,2.39,0,0,0-3-.6c-1.48,1.12.41,3.58-.86,4.89a2.44,2.44,0,0,1-2.31.44,5.74,5.74,0,0,1-2.07-1.21,26.78,26.78,0,0,1-8.79-12.66,5.65,5.65,0,0,0-.78-1.78,2.14,2.14,0,0,0-1.84-.86,2.21,2.21,0,0,0-1.67,2.37c0,2.87,2.1,5.38,4.11,7.65l7,7.84L338.6,333l13.58,3,9.2-1.9Z" style="fill:#009427"></path><g style="opacity:0.6000000000000001"><path d="M361.73,331.93c1.67-1.68,4-2.68,2.8-4.63-.34.66-2,.65-2.59,1.16s-2.19-.1-3-.31a2,2,0,0,1-1.45-2.13,5.35,5.35,0,0,1,1.08-2.47c1-1.57,2.14-3.1,3.3-4.61a4.15,4.15,0,0,0,.95-1.77,1.42,1.42,0,0,0-1-1.6A2.55,2.55,0,0,0,360,316c-2.49,1.41-4.93,3.2-5.84,5.67-.57,1.55-.49,3.26-1.19,4.78s-2.69,2.82-4.37,2.09a3.52,3.52,0,0,1-1.79-2.47,7.26,7.26,0,0,0-1.1-2.84,2.39,2.39,0,0,0-3-.6c-1.48,1.12.41,3.58-.86,4.89a2.44,2.44,0,0,1-2.31.44,5.74,5.74,0,0,1-2.07-1.21,26.78,26.78,0,0,1-8.79-12.66,5.65,5.65,0,0,0-.78-1.78,2.14,2.14,0,0,0-1.84-.86,2.21,2.21,0,0,0-1.67,2.37c0,2.87,2.1,5.38,4.11,7.65l7,7.84L338.6,333l13.58,3,9.2-1.9Z" style="fill:#fff"></path></g><path d="M365.58,337.25a5.05,5.05,0,0,1,4-3.87,8.73,8.73,0,0,0,2.06-.49c.62-.31,1-1.05.65-1.57s-1.26-.47-1.95-.37l-4.76.69,3.84-3.85c.5-.51,1-1.21.67-1.8s-1.29-.59-2-.46a10.78,10.78,0,0,0-6.3,3.5c-1.35,1.6-2.11,3.6-3.83,4.9a7,7,0,0,1-5.78,1.13,6.08,6.08,0,0,1-4.26-3.61,5.16,5.16,0,0,0-.95-2.12c-1.09-1.09-3.31-.62-4.27.56a5.63,5.63,0,0,0-.83,4.19c-4.37-5.69-9.24-11.63-16.53-14.14a8.55,8.55,0,0,0-4-.56,3.31,3.31,0,0,0-2.87,2.26c-.25,1.38,1,2.65,2.26,3.46,2.49,1.54,5.54,2.21,8.23,3.47s5.61,3.14,5.44,5.8c0,0,13.13,2,19.62,2.16S365.58,337.25,365.58,337.25Z" style="fill:#009427"></path><g style="opacity:0.8"><path d="M365.58,337.25a5.05,5.05,0,0,1,4-3.87,8.73,8.73,0,0,0,2.06-.49c.62-.31,1-1.05.65-1.57s-1.26-.47-1.95-.37l-4.76.69,3.84-3.85c.5-.51,1-1.21.67-1.8s-1.29-.59-2-.46a10.78,10.78,0,0,0-6.3,3.5c-1.35,1.6-2.11,3.6-3.83,4.9a7,7,0,0,1-5.78,1.13,6.08,6.08,0,0,1-4.26-3.61,5.16,5.16,0,0,0-.95-2.12c-1.09-1.09-3.31-.62-4.27.56a5.63,5.63,0,0,0-.83,4.19c-4.37-5.69-9.24-11.63-16.53-14.14a8.55,8.55,0,0,0-4-.56,3.31,3.31,0,0,0-2.87,2.26c-.25,1.38,1,2.65,2.26,3.46,2.49,1.54,5.54,2.21,8.23,3.47s5.61,3.14,5.44,5.8c0,0,13.13,2,19.62,2.16S365.58,337.25,365.58,337.25Z" style="fill:#fff"></path></g><path d="M317.51,345.46a5,5,0,0,1-1.89-.32,14.29,14.29,0,0,1-4.18-2,14.49,14.49,0,0,1-3.33-3.22,5.22,5.22,0,0,1-.95-1.67,26.5,26.5,0,0,0,4.58,4.47A25.88,25.88,0,0,0,317.51,345.46Z" style="fill:#263238"></path><path d="M315,347.82a5,5,0,0,1-1.9-.32,14.14,14.14,0,0,1-4.17-2,14.29,14.29,0,0,1-3.33-3.22,5.22,5.22,0,0,1-.95-1.67A19.65,19.65,0,0,0,315,347.82Z" style="fill:#263238"></path><path d="M403,337.88s-.05.29-.25.77a18,18,0,0,1-1,2,25.36,25.36,0,0,1-10.39,10.07,17.78,17.78,0,0,1-2,.9,2.61,2.61,0,0,1-.78.23c0-.08,1-.54,2.63-1.46a29,29,0,0,0,10.24-9.92C402.39,338.89,402.87,337.84,403,337.88Z" style="fill:#263238"></path><path d="M407.75,339.94a5.14,5.14,0,0,1-.66,1.77,17.52,17.52,0,0,1-2.55,3.78,17.85,17.85,0,0,1-3.43,3,5.32,5.32,0,0,1-1.68.88,43.74,43.74,0,0,0,4.72-4.24A41.72,41.72,0,0,0,407.75,339.94Z" style="fill:#263238"></path><path d="M383.68,274.05l9.28-2.57s7.67,1.15,9.65-.32,1-2.32,1-2.32c4.18-1.57,2.69-3.43,2.69-3.43s4.15-.32,4.22-3.59c.05-1.91-15.83-5.07-15.83-5.07a4.72,4.72,0,0,1,1.77-3.21c1.62-1.16,11,1.08,13.85.21a3.68,3.68,0,0,0,2.67-3.7s-19.64-4-23.78-2.27-24,10-27,14l6.61,13.77a31.84,31.84,0,0,0,3.69,1.1C375.81,277.56,383.68,274.05,383.68,274.05Z" style="fill:#ffbf9d"></path><path d="M373,270.65c0-.08.76-.06,2.11-.25a16.46,16.46,0,0,0,5.43-1.74,15.85,15.85,0,0,0,3.21-2.24,14.17,14.17,0,0,0,1.52-1.57,17.09,17.09,0,0,1,1.59-1.82,3.44,3.44,0,0,1,2.5-1.07,14.68,14.68,0,0,1,2.66.36c1.76.37,3.48,1,5.24.7a5.83,5.83,0,0,0,3.05-1.32c.81-.68,1.32-1.8.9-2.51l.25.19c-5.59-1.36-10.58-1.95-14.1-2.47l-4.14-.6a6.05,6.05,0,0,1-1.48-.32,6.48,6.48,0,0,1,1.51,0c1,.07,2.39.19,4.17.37a110.75,110.75,0,0,1,14.24,2.18l.16,0,.09.15a2.24,2.24,0,0,1,.1,2,4.06,4.06,0,0,1-1.13,1.57,6.48,6.48,0,0,1-3.51,1.54,9.08,9.08,0,0,1-2.9-.12l-2.63-.6a13.3,13.3,0,0,0-2.48-.37,2.69,2.69,0,0,0-2,.83,19.77,19.77,0,0,0-1.54,1.73,17.69,17.69,0,0,1-1.62,1.62,15.65,15.65,0,0,1-3.42,2.24,15.5,15.5,0,0,1-5.67,1.54A6.62,6.62,0,0,1,373,270.65Z" style="fill:#ff9a6c"></path><path d="M392,263c.22.08-.23,1.93-1.25,4s-2.17,3.63-2.37,3.5.61-1.81,1.6-3.87S391.77,262.88,392,263Z" style="fill:#ff9a6c"></path><path d="M402.78,268.46c0,.24-2.62-.07-5.79-.42s-5.74-.62-5.73-.87,2.62-.34,5.83,0S402.82,268.23,402.78,268.46Z" style="fill:#ff9a6c"></path><path d="M407.55,265.58c0,.24-3.32,0-7.34-.6s-7.25-1.23-7.22-1.46,3.32,0,7.34.6S407.58,265.35,407.55,265.58Z" style="fill:#ff9a6c"></path><path d="M394.37,252.24c.24,0,.41,1.2.24,2.66s-.63,2.58-.86,2.53-.17-1.22,0-2.63S394.13,252.24,394.37,252.24Z" style="fill:#ff9a6c"></path><path d="M284,256.74l27.21,14.43,53.09-10.3,7.55,15.61s-48.53,21.26-62.08,21.5-38.19-15.75-38.19-15.75Z" style="fill:#ffbf9d"></path><path d="M349.61,271.88s-6.45-1.25-7.62,3.57,4.62,6,4.62,6-1.06,3.33,4.51,5.07,6.66-4.31,6.66-4.31,5.24,1.72,5.64-1.66c.59-5-3.48-5.41-3.48-5.41s4-4.9-2.55-6.84S349.61,271.88,349.61,271.88Zm7-1.43c3.79.8,1.29,5.53,1.29,5.53s4.29,1,3.45,3.51-5.08.88-5.08.88,1.55,4.32-3.64,4.37-3.05-4.42-3.05-4.42-4.22.39-5.12-3.62,6.4-2.82,6.4-2.82C351.05,270.48,352.78,269.65,356.58,270.45Z" style="fill:#009427"></path><g style="opacity:0.30000000000000004"><path d="M349.61,271.88s-6.45-1.25-7.62,3.57,4.62,6,4.62,6-1.06,3.33,4.51,5.07,6.66-4.31,6.66-4.31,5.24,1.72,5.64-1.66c.59-5-3.48-5.41-3.48-5.41s4-4.9-2.55-6.84S349.61,271.88,349.61,271.88Zm7-1.43c3.79.8,1.29,5.53,1.29,5.53s4.29,1,3.45,3.51-5.08.88-5.08.88,1.55,4.32-3.64,4.37-3.05-4.42-3.05-4.42-4.22.39-5.12-3.62,6.4-2.82,6.4-2.82C351.05,270.48,352.78,269.65,356.58,270.45Z"></path></g><path d="M349.7,270.63s-6.44-1.25-7.61,3.57,4.62,6,4.62,6-1.07,3.33,4.51,5.07,6.66-4.31,6.66-4.31,5.25,1.72,5.64-1.65c.59-5-3.48-5.41-3.48-5.41s4-4.9-2.55-6.85S349.7,270.63,349.7,270.63Zm7-1.43c3.8.81,1.3,5.54,1.3,5.54s4.29,1,3.44,3.5-5.07.88-5.07.88,1.55,4.32-3.65,4.38-3.05-4.43-3.05-4.43-4.21.39-5.11-3.62,6.39-2.81,6.39-2.81c.2-3.4,1.95-4.24,5.75-3.44Z" style="fill:#009427"></path><path d="M352.64,225.92s-6.49,1-5.94,6,6.4,4.09,6.4,4.09.13,3.49,6,3.23,4.79-6.33,4.79-6.33,5.51-.17,4.73-3.48c-1.15-4.9-5.12-3.9-5.12-3.9s2.11-6-4.73-5.56S352.64,225.92,352.64,225.92Zm6.06-3.71c3.84-.55,3.11,4.75,3.11,4.75s4.36-.55,4.43,2.12-4.47,2.56-4.47,2.56,2.94,3.53-1.93,5.36-4.38-3.12-4.38-3.12-3.83,1.81-6-1.66,5.05-4.83,5.05-4.83C353.52,224.12,354.86,222.74,358.7,222.21Z" style="fill:#009427"></path><g style="opacity:0.30000000000000004"><path d="M352.64,225.92s-6.49,1-5.94,6,6.4,4.09,6.4,4.09.13,3.49,6,3.23,4.79-6.33,4.79-6.33,5.51-.17,4.73-3.48c-1.15-4.9-5.12-3.9-5.12-3.9s2.11-6-4.73-5.56S352.64,225.92,352.64,225.92Zm6.06-3.71c3.84-.55,3.11,4.75,3.11,4.75s4.36-.55,4.43,2.12-4.47,2.56-4.47,2.56,2.94,3.53-1.93,5.36-4.38-3.12-4.38-3.12-3.83,1.81-6-1.66,5.05-4.83,5.05-4.83C353.52,224.12,354.86,222.74,358.7,222.21Z"></path></g><path d="M352.31,224.72s-6.49,1-5.95,5.95,6.4,4.09,6.4,4.09.14,3.5,6,3.23,4.8-6.32,4.8-6.32,5.51-.17,4.73-3.48c-1.15-4.92-5.12-3.9-5.12-3.9s2.11-6-4.73-5.56S352.31,224.72,352.31,224.72Zm6.06-3.72c3.84-.54,3.1,4.76,3.1,4.76s4.37-.55,4.44,2.11-4.47,2.56-4.47,2.56,2.93,3.54-1.94,5.36-4.37-3.12-4.37-3.12-3.83,1.81-6-1.65,5-4.83,5-4.83c-1-3.27.39-4.65,4.24-5.19Z" style="fill:#009427"></path><path d="M342.49,249.66s-4.09.17-4.34,3.14.9,7.84,8,8.9,8-7.8,8-7.8S352.09,249.26,342.49,249.66Z" style="fill:#e0e0e0"></path><g style="opacity:0.21"><path d="M346.53,257.66a9.21,9.21,0,0,0,7.45-2.77c.12-.61.17-1,.17-1s-2.06-4.64-11.66-4.24c0,0-4.09.17-4.34,3.14a4.29,4.29,0,0,1,0,.62A12.46,12.46,0,0,0,346.53,257.66Z" style="fill:#263238"></path></g><path d="M343.28,247.72l-1.17,5.13a6.75,6.75,0,0,0,5,2.25c3-.17,3-1.29,3-1.29l1.23-5.25a11.27,11.27,0,0,0-5.52-2C342.91,246.47,343.28,247.72,343.28,247.72Z" style="fill:#e0e0e0"></path><path d="M321.11,284.23s-2.6,3.17-.55,5.34,6.44,4.55,12-.05-.5-11.14-.5-11.14S327.21,276.82,321.11,284.23Z" style="fill:#e0e0e0"></path><g style="opacity:0.21"><path d="M329.77,286.56a9.2,9.2,0,0,0,2.9-7.4c-.37-.5-.63-.79-.63-.79s-4.83-1.55-10.93,5.86c0,0-2.6,3.17-.55,5.34a3.57,3.57,0,0,1,.44.43A12.43,12.43,0,0,0,329.77,286.56Z" style="fill:#263238"></path></g><path d="M320.19,282.35l3.05,4.3a6.75,6.75,0,0,0,5-2.24c1.86-2.33,1-3.07,1-3.07l-3.1-4.42A11.33,11.33,0,0,0,321,279.7C319,281.8,320.19,282.35,320.19,282.35Z" style="fill:#e0e0e0"></path><path d="M367.13,284s2.78,1.95,4.43.14,3.38-5.59-.76-9.9-9.17,1.09-9.17,1.09S360.64,279.42,367.13,284Z" style="fill:#e0e0e0"></path><g style="opacity:0.21"><path d="M368.52,276.72a7.62,7.62,0,0,0-6.28-2,7.27,7.27,0,0,0-.61.57s-1,4.08,5.5,8.67c0,0,2.78,1.95,4.43.14.11-.13.23-.26.34-.41A10.26,10.26,0,0,0,368.52,276.72Z" style="fill:#263238"></path></g><path d="M365.63,284.92l3.37-2.78a5.59,5.59,0,0,0-2.16-4c-2-1.39-2.6-.66-2.6-.66l-3.46,2.83a9.24,9.24,0,0,0,2.6,4.12C365.25,285.9,365.63,284.92,365.63,284.92Z" style="fill:#e0e0e0"></path><path d="M350.94,318.37s-7.07,2.81-11.79-6.15-4-17.33,2.4-19.24,8.51,1.3,9.82,3.62,4.46,7.5,5,12.18C356.68,311.42,355.22,317,350.94,318.37Z" style="fill:#ae7461"></path><path d="M350.83,315.78a6.84,6.84,0,0,0,3.21-3l0,.06.05-.08.11-.17a3.17,3.17,0,0,0,.17-.37l.06-.1-.06.09a7.39,7.39,0,0,0,.31-3.67,7.49,7.49,0,0,0-.55-2.14,3,3,0,0,0-1.48-1.55,2.65,2.65,0,0,0-2.34.22,3.81,3.81,0,0,0-1.51,1.85c-.29.7-.42,1.45-.68,2.16a2.87,2.87,0,0,1-1.37,1.72c-.57.26-1.23.21-1.82.43a2.25,2.25,0,0,0-1.34,2.63,3.35,3.35,0,0,0,2.15,2A6.8,6.8,0,0,0,350.83,315.78Z" style="fill:#6f4439;opacity:0.30000000000000004"></path><path d="M343.58,294a6.75,6.75,0,0,0-3.9,2l0-.06-.05.08-.14.14a2.66,2.66,0,0,1-.26.31l-.06.1.05-.08a7.54,7.54,0,0,0-1.33,3.41,7.65,7.65,0,0,0-.07,2.19,2.92,2.92,0,0,0,1,1.9,2.62,2.62,0,0,0,2.31.43,3.81,3.81,0,0,0,2-1.36c.47-.59.8-1.28,1.22-1.9a2.89,2.89,0,0,1,1.8-1.27c.61-.09,1.24.12,1.87.07a2.24,2.24,0,0,0,2-2.15,3.3,3.3,0,0,0-1.51-2.54A6.78,6.78,0,0,0,343.58,294Z" style="fill:#6f4439;opacity:0.30000000000000004"></path><path d="M344.73,305.72a2.49,2.49,0,0,0-.81.17l-1.63.55c-.41.15-.89.34-1,.78a.69.69,0,0,0,.26.77,1,1,0,0,0,.82.15h-.07a5,5,0,0,0,2.5-.79,1.72,1.72,0,0,0,.55-.49.72.72,0,0,0-.6-1.14Z" style="fill:#6f4439;opacity:0.30000000000000004"></path><path d="M337.87,297.36s-.18.53-.4,1.39a12.9,12.9,0,0,0,.17,6.89c.26.85.5,1.36.46,1.37a1.41,1.41,0,0,1-.19-.34,8.59,8.59,0,0,1-.41-1,11.56,11.56,0,0,1-.17-7,8.64,8.64,0,0,1,.36-1A1.16,1.16,0,0,1,337.87,297.36Z" style="fill:#fff"></path><path d="M339.78,295s-.17.32-.46.63-.56.51-.62.47.16-.32.46-.63S339.74,294.92,339.78,295Z" style="fill:#fff"></path><path d="M341.48,313.75a2.87,2.87,0,0,1-1.32-1.83,9,9,0,0,1,.65.93A8.4,8.4,0,0,1,341.48,313.75Z" style="fill:#fff"></path><path d="M360.06,250.11s-5.55-2.6-2.89-10.3,8-11.91,12.61-9.2,3.93,5.71,3.29,7.76-1.95,6.75-4.39,9.66C367.3,249.66,363.19,251.89,360.06,250.11Z" style="fill:#ae7461"></path><path d="M361.51,248.62a5.42,5.42,0,0,0,3.53.23h0l.16,0a1.63,1.63,0,0,0,.31-.11l.1,0-.08,0a6.06,6.06,0,0,0,2.32-1.85,6,6,0,0,0,.95-1.49,2.41,2.41,0,0,0,.1-1.73,2.14,2.14,0,0,0-1.42-1.25,3.08,3.08,0,0,0-1.92.13c-.57.21-1.08.55-1.64.79a2.32,2.32,0,0,1-1.77.14c-.46-.19-.8-.6-1.25-.83a1.84,1.84,0,0,0-2.29.66,2.71,2.71,0,0,0,0,2.39A5.47,5.47,0,0,0,361.51,248.62Z" style="fill:#6f4439;opacity:0.30000000000000004"></path><path d="M370.3,232.37a5.45,5.45,0,0,0-3.33-1.18h0l-.07,0h-.16c-.11,0-.22,0-.33,0l-.09,0h.08a6,6,0,0,0-2.73,1.09,6.21,6.21,0,0,0-1.33,1.17,2.39,2.39,0,0,0-.57,1.63,2.14,2.14,0,0,0,1,1.59,3,3,0,0,0,1.89.41c.6-.05,1.19-.24,1.79-.33a2.3,2.3,0,0,1,1.73.35c.39.31.61.8,1,1.14a1.82,1.82,0,0,0,2.38,0,2.68,2.68,0,0,0,.66-2.3A5.45,5.45,0,0,0,370.3,232.37Z" style="fill:#6f4439;opacity:0.30000000000000004"></path><path d="M364.06,239.5a1.87,1.87,0,0,0-.55-.38l-1.22-.65a1.15,1.15,0,0,0-1-.18.58.58,0,0,0-.31.59.77.77,0,0,0,.36.56l0,0a4.14,4.14,0,0,0,1.85,1,1.47,1.47,0,0,0,.59,0,.61.61,0,0,0,.46-.35A.64.64,0,0,0,364.06,239.5Z" style="fill:#6f4439;opacity:0.30000000000000004"></path><path d="M365.18,230.86s-.4.2-1,.54a10.39,10.39,0,0,0-3.95,3.89c-.36.63-.53,1.05-.55,1a1.14,1.14,0,0,1,.09-.3,5.51,5.51,0,0,1,.36-.78,9.31,9.31,0,0,1,4-3.94,7.91,7.91,0,0,1,.79-.35A1.49,1.49,0,0,1,365.18,230.86Z" style="fill:#fff"></path><path d="M367.64,230.66c0,.05-.28.09-.62.08s-.61,0-.62-.1.28-.08.63-.08A1.28,1.28,0,0,1,367.64,230.66Z" style="fill:#fff"></path><path d="M357.55,242a2.31,2.31,0,0,1,.35-1.79,5.42,5.42,0,0,1-.19.89A5.67,5.67,0,0,1,357.55,242Z" style="fill:#fff"></path><path d="M337,250.48a6.67,6.67,0,1,1,2.7-9.07,6.68,6.68,0,0,1-2.7,9.07Z" style="fill:#ff9a6c"></path><g style="opacity:0.5"><path d="M337,250.48a6.67,6.67,0,1,1,2.7-9.07,6.68,6.68,0,0,1-2.7,9.07Z" style="fill:#009427"></path></g><path d="M336.37,249.33a6.66,6.66,0,1,1,2.7-9.07,6.66,6.66,0,0,1-2.7,9.07Z" style="fill:#ff9a6c"></path><g style="opacity:0.30000000000000004"><path d="M335.07,247a3.89,3.89,0,1,1,1.56-5.27h0A3.89,3.89,0,0,1,335.07,247Z" style="fill:#fff"></path></g><path d="M334.4,245.69c-1.87.36-3.38-.09-3.36-1a2.48,2.48,0,0,1,4.36-2.36h0a2.47,2.47,0,0,1-1,3.35Z" style="fill:#ff9a6c"></path><path d="M372.78,254.27a5.95,5.95,0,1,1-2.7,8A5.95,5.95,0,0,1,372.78,254.27Z" style="fill:#ff9a6c"></path><g style="opacity:0.5"><path d="M372.78,254.27a5.95,5.95,0,1,1-2.7,8A5.95,5.95,0,0,1,372.78,254.27Z" style="fill:#009427"></path></g><path d="M377.69,263.85a5.93,5.93,0,1,1,2.4-8.07,5.93,5.93,0,0,1-2.4,8.07Z" style="fill:#ff9a6c"></path><g style="opacity:0.30000000000000004"><path d="M371.59,257.68A3.45,3.45,0,1,1,373.9,262,3.45,3.45,0,0,1,371.59,257.68Z" style="fill:#fff"></path></g><path d="M375.94,260.6a2.2,2.2,0,1,1,.88-3,2.21,2.21,0,0,1-.88,3Z" style="fill:#ff9a6c"></path><path d="M318.36,296.3a10.17,10.17,0,0,0,3.27,8.47,9.48,9.48,0,0,0,8.39,2.41,10.45,10.45,0,0,0-9.95-10.91,10.87,10.87,0,0,0-1.71.07Z" style="fill:#455a64"></path><path d="M321,298.5c.1-.08,1.9,2.26,4.52,4.76s5,4.23,4.93,4.32a7.19,7.19,0,0,1-1.66-1,33.19,33.19,0,0,1-6.71-6.47A6.68,6.68,0,0,1,321,298.5Z" style="fill:#263238"></path><path d="M340,217.41a10.16,10.16,0,0,0-2.43,8.75,9.48,9.48,0,0,0,5.28,6.94,10.44,10.44,0,0,0-1.46-14.69,9.79,9.79,0,0,0-1.41-1Z" style="fill:#455a64"></path><path d="M340.75,220.73c.12,0,.17,3,.77,6.51s1.49,6.39,1.37,6.42a7.21,7.21,0,0,1-.72-1.8,32.58,32.58,0,0,1-1.52-9.2A6.27,6.27,0,0,1,340.75,220.73Z" style="fill:#263238"></path><path d="M402,273.75a13.15,13.15,0,0,0-11.49-2.28,12.31,12.31,0,0,0-8.43,7.51,13.52,13.52,0,0,0,18.83-3.36,13,13,0,0,0,1.09-1.87Z" style="fill:#455a64"></path><path d="M397.81,275.09c0,.17-3.76.49-8.3,1.65s-8.09,2.56-8.15,2.4a8.87,8.87,0,0,1,2.25-1.1,44.49,44.49,0,0,1,11.71-2.92A8.66,8.66,0,0,1,397.81,275.09Z" style="fill:#263238"></path><path d="M334.86,268.29c0,1.43-2.23,2.54-4.93,2.5s-4.88-1.23-4.85-2.64a9.86,9.86,0,0,0,0,1.63c0,1.42,2.15,2.61,4.84,2.65s4.91-1.07,4.94-2.49A15.14,15.14,0,0,0,334.86,268.29Z" style="fill:#455a64"></path><path d="M330,267.27c2.16,0,4,.8,4.61,1.83a1.46,1.46,0,0,0,.27-.81c0-1.42-2.15-2.61-4.85-2.65s-4.91,1.07-4.93,2.51a1.41,1.41,0,0,0,.24.82C326,268,327.82,267.23,330,267.27Z" style="fill:#263238"></path><path d="M363.69,255.63c.57.54.19,1.85-.85,2.92s-2.32,1.5-2.88,1a5.43,5.43,0,0,0,.64.63c.57.54,1.86.11,2.89-1s1.42-2.38.85-2.92A7.76,7.76,0,0,0,363.69,255.63Z" style="fill:#455a64"></path><path d="M361.45,257.21a3.08,3.08,0,0,1,2.47-1.17.8.8,0,0,0-.23-.41c-.56-.54-1.86-.12-2.89.95s-1.41,2.38-.84,2.93a.73.73,0,0,0,.42.21A3.07,3.07,0,0,1,361.45,257.21Z" style="fill:#263238"></path><path d="M371.22,205.12c.38,1.11-1,2.59-3.11,3.31s-4.1.42-4.48-.67a9.35,9.35,0,0,0,.43,1.26c.38,1.11,2.39,1.42,4.49.69s3.49-2.2,3.11-3.31A12.09,12.09,0,0,0,371.22,205.12Z" style="fill:#455a64"></path><path d="M367.17,205.7c1.68-.58,3.3-.5,4.07.12a1.19,1.19,0,0,0,0-.7c-.38-1.1-2.39-1.41-4.49-.69s-3.49,2.21-3.1,3.33a1.21,1.21,0,0,0,.41.56C364.27,207.34,365.49,206.28,367.17,205.7Z" style="fill:#263238"></path><path d="M375.5,286.89l-13.85,11.16a1.06,1.06,0,0,0-.2,1.41,12.19,12.19,0,0,0,4.23,3.58c10,5.54,16.28-4.83,14.89-10.87a9.33,9.33,0,0,0-3.83-5.32A1,1,0,0,0,375.5,286.89Z" style="fill:#009427"></path><path d="M375.5,286.89l-13.85,11.16a1.06,1.06,0,0,0-.2,1.41,12.19,12.19,0,0,0,4.23,3.58c10,5.54,16.28-4.83,14.89-10.87a9.33,9.33,0,0,0-3.83-5.32A1,1,0,0,0,375.5,286.89Z" style="opacity:0.30000000000000004"></path><path d="M374.76,286.22l-13.84,11.16a1,1,0,0,0-.2,1.41,12.2,12.2,0,0,0,4.23,3.58c10,5.54,16.28-4.83,14.89-10.87a9.42,9.42,0,0,0-3.83-5.32A1,1,0,0,0,374.76,286.22Z" style="fill:#009427"></path><path d="M373.6,287.56c.36-.52,4.87,1.1,4.85,4.86s-1.08,6.58-2.75,6.67-3.75-3-3.84-5.8A10.24,10.24,0,0,1,373.6,287.56Z" style="opacity:0.30000000000000004"></path><path d="M362.36,297.19c0-.73,3.83-2.81,6.35-2.34s5.45,4.64,5.35,5.75-4.82,1.76-7.17,1S362.32,298.27,362.36,297.19Z" style="opacity:0.30000000000000004"></path><path d="M367,296.05c-.31-.32-3.21,1.6-2.56,2.26S367.62,296.74,367,296.05Z" style="fill:#009427"></path><path d="M370.73,297.59c.41-.11,1.84,3,.78,3S370.33,297.71,370.73,297.59Z" style="fill:#009427"></path><path d="M369,296.71c.5.1,0,4.17-1.33,4S368.51,296.61,369,296.71Z" style="fill:#009427"></path><path d="M373.43,292.05c-.25-.78,3.49-1.69,3.6-.89S373.75,293.07,373.43,292.05Z" style="fill:#009427"></path><path d="M373.4,290.55c.41.34,2.33-1.2,1.78-1.68S373,290.21,373.4,290.55Z" style="fill:#009427"></path><path d="M373.21,293.62c0,.31,3.32,1.08,3.21.42S373.29,292.85,373.21,293.62Z" style="fill:#009427"></path><path d="M372.76,294.9c-.36.58,1.66,2.83,2.18,2.35S373.29,294.06,372.76,294.9Z" style="fill:#009427"></path><path d="M372,288.93a2.43,2.43,0,0,1-.23.28l-.67.69c-.57.58-1.39,1.36-2.34,2.15s-1.86,1.47-2.53,1.93l-.81.53a1.19,1.19,0,0,1-.31.17l.28-.22c.21-.14.47-.33.78-.56.66-.47,1.56-1.15,2.51-1.94s1.77-1.56,2.36-2.12l.69-.67Z" style="fill:#fff"></path><path d="M241.15,207.07s13.94,11.08,18.37,18,39.89,31,39.4,31.89-21.67,35.83-21.67,35.83l-11.77-5.95L241.15,208.3" style="fill:#009427"></path><path d="M191.61,336.28S165.17,378,162.5,393.89l29.11,11.91Z" style="fill:#009427"></path><path d="M174.05,201.31c0,1.05-5,14.15-5,14.15L143.12,244l50.06,81.52,5,12.32,77.06-4.46s-11-58.45-11.79-68.15-22.28-58.19-22.28-58.19l-26,2.89-7.6-2.62Z" style="fill:#009427"></path><path d="M190,336.68c-1-.39-6,16.44-14.56,47.22s-2.71,93.67-2.71,93.67h132.9s-8.79-69.63-20.27-103.48c-11.33-33.42-10.73-54.41-13.25-54.19S190,336.68,190,336.68Z" style="fill:#263238"></path><path d="M267.26,289.69s0-.07-.07-.22l-.15-.66c-.12-.59-.3-1.45-.56-2.55-.52-2.21-1.33-5.39-2.64-9.23a88.71,88.71,0,0,0-5.52-13.09,145.54,145.54,0,0,0-9.55-14.56,159.13,159.13,0,0,0-21.13-23.53c-3-2.74-5.6-4.73-7.39-6.13l-2.12-1.53-.54-.41c-.12-.09-.18-.15-.17-.15l.2.11.57.36,2.18,1.46c1.83,1.35,4.48,3.3,7.51,6a151,151,0,0,1,21.31,23.5,139.6,139.6,0,0,1,9.55,14.64,86.66,86.66,0,0,1,5.45,13.2,90.11,90.11,0,0,1,2.49,9.3c.23,1.12.38,2,.46,2.58,0,.27.08.49.1.67A.8.8,0,0,1,267.26,289.69Z" style="fill:#263238"></path><path d="M143.12,244s-4.9,5.64-3.11,18.35,22.49,70.3,22.49,70.3l45.36-15.3-24-47.79-16.65-20.88Z" style="fill:#009427"></path><path d="M265.47,277.49a2,2,0,0,1-.16-.45l-.36-1.31c-.33-1.22-.76-2.84-1.29-4.82-1.11-4.07-2.72-9.67-4.74-15.78s-4.08-11.56-5.62-15.48c-.75-1.91-1.38-3.47-1.84-4.65-.2-.5-.36-.92-.49-1.26a1.48,1.48,0,0,1-.14-.46,2.37,2.37,0,0,1,.23.41l.58,1.23c.5,1.07,1.19,2.64,2,4.59,1.63,3.89,3.74,9.34,5.77,15.46s3.59,11.75,4.6,15.85c.51,2.05.9,3.71,1.14,4.87.1.53.19,1,.26,1.33A1.41,1.41,0,0,1,265.47,277.49Z" style="fill:#263238"></path><path d="M162.5,332.68s.07,0,.21-.1l.63-.23,2.48-.88,9.34-3.22,32.62-11.1-.14.34c-3.87-7.64-8.13-16-12.59-24.81l-6.89-13.61c-1.06-2.22-2.33-4.28-3.48-6.35s-2.33-4.07-3.48-6a114.8,114.8,0,0,0-7-10.74,44.47,44.47,0,0,0-3.78-4.38,22.53,22.53,0,0,0-4.2-3.26,30,30,0,0,0-15.33-4.39,32.23,32.23,0,0,0-4.39.27l-1.13.18-.39.05a1.59,1.59,0,0,1,.38-.1l1.13-.23a29.08,29.08,0,0,1,4.4-.38A29.8,29.8,0,0,1,166.39,248a23.25,23.25,0,0,1,4.29,3.29,45.2,45.2,0,0,1,3.85,4.41,115.78,115.78,0,0,1,7.09,10.75c1.15,1.95,2.32,4,3.49,6s2.44,4.14,3.5,6.36l6.9,13.61,12.57,24.83.12.25-.26.09-32.69,10.92-9.38,3.09-2.5.81-.65.19Z" style="fill:#263238"></path><path d="M205.48,234.08c-.06.12-8.23-4-18.24-9.11s-18.07-9.45-18-9.58,8.23,4,18.25,9.11S205.55,234,205.48,234.08Z" style="fill:#263238"></path><path d="M215.34,210.61a92.3,92.3,0,0,1,1,9.64,92.43,92.43,0,0,1,.47,9.68,87.17,87.17,0,0,1-1-9.64A87.45,87.45,0,0,1,215.34,210.61Z" style="fill:#263238"></path><path d="M227.43,228.58l-.32.12-1,.31c-.84.26-2.06.66-3.64,1.2-3.15,1.08-7.67,2.75-13.17,5s-12,5.15-19.08,8.55a53.68,53.68,0,0,0-5.4,2.62,4.52,4.52,0,0,0-1.85,2.23,4.21,4.21,0,0,0,.17,2.94c.81,1.92,2.5,3.38,4,5l2.28,2.46,2.2,2.59a132.56,132.56,0,0,1,8,10.63c2.43,3.54,4.6,7.07,6.6,10.46,4,6.81,7.23,13.12,9.84,18.48S220.65,311,222,314l1.52,3.52c.16.39.28.69.38.92a1.69,1.69,0,0,1,.11.32,1.81,1.81,0,0,1-.16-.3c-.11-.22-.25-.52-.43-.9-.38-.82-.92-2-1.6-3.48-1.4-3-3.43-7.39-6.07-12.73s-5.92-11.62-9.92-18.4c-2-3.37-4.19-6.89-6.61-10.41s-5.06-7.09-7.95-10.59l-2.19-2.57L186.8,257c-1.46-1.62-3.2-3.1-4.08-5.18a4.67,4.67,0,0,1-.18-3.29,5,5,0,0,1,2.05-2.48,50.59,50.59,0,0,1,5.48-2.64c7.11-3.38,13.62-6.23,19.14-8.47S219.28,231,222.46,230c1.58-.51,2.82-.89,3.67-1.11l1-.26A1.17,1.17,0,0,1,227.43,228.58Z" style="fill:#263238"></path><circle cx="205.7" cy="260.87" r="3.47" style="opacity:0.30000000000000004"></circle><circle cx="238.21" cy="247.42" r="3.47" style="opacity:0.30000000000000004"></circle><path d="M227.43,294.51a3.47,3.47,0,1,1-3.47-3.46A3.47,3.47,0,0,1,227.43,294.51Z" style="opacity:0.30000000000000004"></path><circle cx="256.12" cy="283.47" r="3.47" style="opacity:0.30000000000000004"></circle><path d="M280.41,337.45a36,36,0,0,1,4.7,1.28,7,7,0,0,1-4.7-1.28Z" style="fill:#ff9a6c"></path><path d="M169.66,330.26c.17.9,14.77,21.61,26.45,21.61s69.25-17.26,69.25-17.26l-6.66-17.84-57.61,8.66-2.83-4.81Z" style="fill:#ffbf9d"></path><path d="M258.7,316.77c.3-.25,11-4.87,16.89-6.16s9.76-.75,13.65,1.31,12.41,4.38,14.26,6.27c1.41,1.44.12,3.94-2.5,3.69s-12.69-2.51-12.9-2.48c0,0-.1.11-.16.27a3.49,3.49,0,0,0,.94,3.67l6.82,6.39s.1,2.86-1.79,3.39a19.43,19.43,0,0,0-3.41,1.34s-.77,3.87-3.76,4.19-12.05-2.57-12.48-2.63l-8.9-1.41Z" style="fill:#ffbf9d"></path><path d="M283.78,333a25.5,25.5,0,0,1,3.35.91,25.46,25.46,0,0,1,3.37.85,11.28,11.28,0,0,1-6.72-1.76Z" style="fill:#ff9a6c"></path><path d="M271,335l9.7,4.52a3.7,3.7,0,0,0,2.2.5c1.12-.23,1.75-1.4,2.22-2.45" style="fill:#ffbf9d"></path><path d="M176.39,120.83c10-7.7,20.18-9,33-8.86,7.24.11,8.36-4,13.53-2.47a22.85,22.85,0,0,1,12.75,9c3.53,5.32,6.44,11.25,6.94,17.61.51,6.52,1,13.09.32,19.6a1.36,1.36,0,0,1,0,.2,22.62,22.62,0,0,1-19.4,19.78l-4.11.57c-9.24,0-18.6,0-27.53-2.35s-13.14,21.54-16.51,13C164,158,166.23,128.62,176.39,120.83Z" style="fill:#263238"></path><path d="M213.42,114.74l-6.67-1-26,9.38a7.15,7.15,0,0,0-7,6.67l2,72.11,32,20.16v11l8.19-2.73-3.76-9.4c0-6.79,0-15.41,0-15.41s17.21-1.13,22.18-21.09c2.47-9.93,3.4-26.47,3.72-40C238.36,132.22,228.49,115.28,213.42,114.74Z" style="fill:#ffbf9d"></path><path d="M228.42,161a2.62,2.62,0,0,1-2.73,2.4,2.5,2.5,0,0,1-2.48-2.57,2.62,2.62,0,0,1,2.73-2.41A2.5,2.5,0,0,1,228.42,161Z" style="fill:#263238"></path><path d="M233.26,151.07c-.35.31-2.19-1.32-5-1.55s-5,1-5.23.61c-.14-.16.24-.74,1.19-1.32a7.16,7.16,0,0,1,4.23-.91,6.83,6.83,0,0,1,3.93,1.66C233.19,150.29,233.43,150.93,233.26,151.07Z" style="fill:#263238"></path><path d="M214.58,172.44c0-.16,1.76-.31,4.61-.43.72,0,1.41-.09,1.57-.57a3.68,3.68,0,0,0-.29-2.15c-.53-1.79-1.07-3.66-1.64-5.62-2.26-8-3.83-14.52-3.51-14.61s2.42,6.31,4.68,14.3l1.54,5.64a4.12,4.12,0,0,1,.13,2.83,1.82,1.82,0,0,1-1.26.94,4.83,4.83,0,0,1-1.23.06C216.34,172.74,214.58,172.6,214.58,172.44Z" style="fill:#263238"></path><path d="M212.21,205.54A51.74,51.74,0,0,1,185.73,196s6,14.66,26.42,14.52Z" style="fill:#ff9a6c"></path><path d="M232.62,141.24c-.53.64-2.63,0-5.15,0s-4.64.47-5.14-.19c-.22-.33.11-1,1-1.58a8,8,0,0,1,8.29.16C232.55,140.27,232.85,140.92,232.62,141.24Z" style="fill:#263238"></path><path d="M197.33,159a2.6,2.6,0,0,0,2.38,2.75,2.49,2.49,0,0,0,2.8-2.21,2.61,2.61,0,0,0-2.38-2.75A2.49,2.49,0,0,0,197.33,159Z" style="fill:#263238"></path><path d="M195.43,148.78c.3.36,2.35-1,5.15-.86s4.78,1.65,5.1,1.32c.16-.15-.14-.77-1-1.47a7.11,7.11,0,0,0-4.07-1.47,6.9,6.9,0,0,0-4.12,1.1C195.6,148,195.28,148.62,195.43,148.78Z" style="fill:#263238"></path><path d="M197.39,139.87c.52.66,2.72.11,5.32.21s4.77.66,5.31,0c.24-.31-.08-1-1-1.62a8,8,0,0,0-4.26-1.25,7.89,7.89,0,0,0-4.3,1.07C197.5,138.91,197.17,139.55,197.39,139.87Z" style="fill:#263238"></path><path d="M176.2,164c.12-1.51-1.31-5.21-2.78-5.58-3.92-1-11.11-1.26-12.06,8.83-1.28,13.79,14.78,12,14.84,11.6S175.76,169.18,176.2,164Z" style="fill:#ffbf9d"></path><path d="M170.92,173.68c-.06-.05-.26.15-.68.29a2.37,2.37,0,0,1-1.8-.13c-1.41-.67-2.42-3.1-2.26-5.59a8.06,8.06,0,0,1,1-3.38,2.78,2.78,0,0,1,2-1.67,1.23,1.23,0,0,1,1.35.79c.15.4,0,.67.11.7s.32-.2.26-.78a1.55,1.55,0,0,0-.46-.92,1.82,1.82,0,0,0-1.3-.47,3.38,3.38,0,0,0-2.71,1.9,8.15,8.15,0,0,0-1.19,3.77c-.17,2.79,1,5.52,2.95,6.28a2.58,2.58,0,0,0,2.23-.16C170.86,174,171,173.71,170.92,173.68Z" style="fill:#ff9a6c"></path><path d="M172.86,158.81l3.39,3.76c15.62-14,46.4-49.43,44.68-47.32,0,0-10.25-4.6-21.58-3s-32.9,6.53-33,19.84S172.86,158.81,172.86,158.81Z" style="fill:#263238"></path><path d="M238.88,126.71c-1.17-2.55.11-5.64,2.29-7.53s5.08-2.82,7.9-3.65,5.73-1.66,8.05-3.39c4.61-3.42,5.84-9.6,5.19-15.09-1.22-10.5-8.08-20-17.18-26.12s-20.25-9.19-31.4-10.11c-23.21-1.93-44.11,6.1-61.89,20.32a13.18,13.18,0,0,0-4.92,9.52c-.13,2.86,1.55,5.48,3.29,7.82,5.35,7.21,11.62,12.2,19,17.59l-2.06,11.79Z" style="fill:#009427"></path><path d="M255.74,92a3.49,3.49,0,0,1-.72.88,20.82,20.82,0,0,1-2.34,2c-1.05.79-2.36,1.64-3.83,2.54s-3.1,1.84-4.73,3a22.89,22.89,0,0,0-4.21,3.58,13.78,13.78,0,0,0-2.43,3.76,13.44,13.44,0,0,0-.93,4,3.44,3.44,0,0,1-.07-1.13,9.59,9.59,0,0,1,.66-3.05,13.59,13.59,0,0,1,2.41-3.94,22,22,0,0,1,4.27-3.69c1.66-1.13,3.31-2.07,4.78-2.94s2.8-1.69,3.86-2.43C254.59,93.09,255.68,91.9,255.74,92Z" style="fill:#263238"></path><path d="M244.45,80.2c.06.09-1.63,1.07-4,3.13-.58.52-1.22,1.09-1.86,1.76s-1.29,1.4-2,2.18a37.62,37.62,0,0,0-3.78,5.55A39.07,39.07,0,0,0,230.18,99c-.29,1-.59,1.93-.77,2.83a25.6,25.6,0,0,0-.48,2.52c-.47,3.1-.39,5.06-.5,5.06a6.26,6.26,0,0,1-.09-1.37,13.08,13.08,0,0,1,0-1.61,19.72,19.72,0,0,1,.18-2.13,25.33,25.33,0,0,1,.43-2.56,28.47,28.47,0,0,1,.74-2.88,36.17,36.17,0,0,1,2.65-6.28A36.78,36.78,0,0,1,236.25,87c.7-.78,1.35-1.54,2-2.17a24.39,24.39,0,0,1,1.92-1.74c.6-.53,1.2-.92,1.7-1.3a12.81,12.81,0,0,1,1.34-.89A6.21,6.21,0,0,1,244.45,80.2Z" style="fill:#263238"></path><path d="M218.44,74.84a6.38,6.38,0,0,1-.07,1.27c-.08.82-.18,2-.29,3.46a101.14,101.14,0,0,0,.79,22.8c.21,1.45.39,2.62.53,3.43a5.62,5.62,0,0,1,.15,1.26,6.2,6.2,0,0,1-.35-1.22c-.2-.8-.44-2-.7-3.41a82.89,82.89,0,0,1-.79-22.9c.16-1.46.32-2.64.46-3.44A5.57,5.57,0,0,1,218.44,74.84Z" style="fill:#263238"></path><path d="M201.46,69.7a10,10,0,0,1,0,1.6c0,1,0,2.53,0,4.37a127.75,127.75,0,0,0,1,14.34,125.83,125.83,0,0,0,2.69,14.13c.45,1.79.83,3.23,1.11,4.22a9.58,9.58,0,0,1,.38,1.56,9.27,9.27,0,0,1-.57-1.5c-.34-1-.78-2.41-1.27-4.19A102.62,102.62,0,0,1,202,90.08a105.33,105.33,0,0,1-.87-14.41c0-1.85.08-3.34.16-4.37A9.65,9.65,0,0,1,201.46,69.7Z" style="fill:#263238"></path><path d="M169.4,81.45a7.57,7.57,0,0,1,1.07,1.07c.66.72,1.59,1.78,2.72,3.11,2.24,2.67,5.22,6.47,8.21,10.88a134,134,0,0,1,7.09,11.64c.83,1.53,1.47,2.79,1.89,3.67a7.83,7.83,0,0,1,.61,1.39,9.61,9.61,0,0,1-.79-1.3c-.52-.93-1.21-2.13-2-3.58-1.73-3-4.22-7.14-7.2-11.53s-5.9-8.21-8.07-10.93l-2.59-3.21A8.8,8.8,0,0,1,169.4,81.45Z" style="fill:#263238"></path><path d="M167.69,150c-3.81-13-1.81-22.11.7-31.42,0,0,30.87-18.42,56.31-12.6,0,0,15.89,3.19,17.94,11.44l.45,28.09s-1.74-11.12-24.88-12S167.69,150,167.69,150Z" style="fill:#009427"></path><path d="M202.69,179.15a3.78,3.78,0,0,1,1.47-2.22,3.86,3.86,0,0,1,4.67.07,5.14,5.14,0,0,1,1.6,5h0a4.67,4.67,0,0,1-3.48,1.69c-.21,0-.42,0-.63,0a4.22,4.22,0,0,1-2.74-1.32A3.78,3.78,0,0,1,202.69,179.15Z" style="fill:#ff9a6c"></path><path d="M204.74,174.64c.4,0,.07,2.68,2.11,4.85s4.89,2.23,4.86,2.61c0,.17-.69.43-1.89.31a6.64,6.64,0,0,1-4.08-2,5.77,5.77,0,0,1-1.59-4C204.19,175.22,204.56,174.6,204.74,174.64Z" style="fill:#263238"></path><path d="M242,117.5a4.83,4.83,0,0,1-.41-.71c-.14-.23-.27-.53-.48-.86l-.75-1.11a18.68,18.68,0,0,0-6.5-5.41,36.47,36.47,0,0,0-12.09-3.6,57.8,57.8,0,0,0-15.5,0,66.12,66.12,0,0,0-7.9,1.56c-2.52.65-4.9,1.46-7.18,2.22-4.54,1.53-8.58,3.07-11.94,4.43s-6.07,2.52-7.93,3.32l-2.15.92a4.14,4.14,0,0,1-.76.29,4.9,4.9,0,0,1,.72-.38c.52-.26,1.22-.59,2.11-1,1.84-.86,4.51-2.08,7.87-3.48s7.38-3,11.93-4.55c2.27-.76,4.66-1.59,7.2-2.25a65.17,65.17,0,0,1,8-1.59,57.54,57.54,0,0,1,15.64,0A36.17,36.17,0,0,1,234,109.08a18.41,18.41,0,0,1,6.5,5.62l.71,1.15c.2.34.32.66.44.89A6.76,6.76,0,0,1,242,117.5Z" style="fill:#263238"></path></g></svg>
