<svg xmlns="http://www.w3.org/2000/svg" viewBox="0 0 500 500"><g id="freepik--background-simple--inject-28"><path d="M461.65,383.47c27.81-62.53,29.68-145.83,10.48-212.61C455.6,113.36,418.82,69.5,376.34,43.39,327,13.08,268.28,4.07,215.39,23.19c-13.92,5-27.47,9.64-40.59,17.9C121,75,131.4,158.44,112.53,187.48c-15.88,24.43-46.24,17.22-65.37,35.94C-4.49,273.94-4.62,401.62,55,441.54,118.19,483.88,392.77,538.32,461.65,383.47Z" style="fill:#009427"></path><path d="M461.65,383.47c27.81-62.53,29.68-145.83,10.48-212.61C455.6,113.36,418.82,69.5,376.34,43.39,327,13.08,268.28,4.07,215.39,23.19c-13.92,5-27.47,9.64-40.59,17.9C121,75,131.4,158.44,112.53,187.48c-15.88,24.43-46.24,17.22-65.37,35.94C-4.49,273.94-4.62,401.62,55,441.54,118.19,483.88,392.77,538.32,461.65,383.47Z" style="fill:#fff;opacity:0.8"></path></g><g id="freepik--Bricks--inject-28"><g style="opacity:0.1"><rect x="399.1" y="233.23" width="34.76" height="14.07" rx="1.65"></rect><rect x="399.1" y="267.74" width="34.76" height="14.07" rx="1.65"></rect><rect x="417.11" y="250.24" width="34.76" height="14.07" rx="1.65"></rect><rect x="380.08" y="250.24" width="34.76" height="14.07" rx="1.65"></rect><rect x="420.92" y="96.5" width="34.76" height="14.07" rx="1.65"></rect><rect x="420.92" y="131" width="34.76" height="14.07" rx="1.65"></rect><rect x="438.93" y="113.5" width="34.76" height="14.07" rx="1.65"></rect><rect x="401.9" y="113.5" width="34.76" height="14.07" rx="1.65"></rect><rect x="40.11" y="304.06" width="34.76" height="14.07" rx="1.65"></rect><rect x="40.11" y="338.56" width="34.76" height="14.07" rx="1.65"></rect><rect x="58.12" y="321.06" width="34.76" height="14.07" rx="1.65"></rect><rect x="21.09" y="321.06" width="34.76" height="14.07" rx="1.65"></rect><rect x="161.77" y="139.58" width="34.76" height="14.07" rx="1.65"></rect><rect x="161.77" y="174.09" width="34.76" height="14.07" rx="1.65"></rect><rect x="179.78" y="156.58" width="34.76" height="14.07" rx="1.65"></rect><rect x="142.76" y="156.58" width="34.76" height="14.07" rx="1.65"></rect><rect x="82.91" y="139.58" width="34.76" height="14.07" rx="1.65"></rect><rect x="82.91" y="174.09" width="34.76" height="14.07" rx="1.65"></rect><rect x="100.93" y="156.58" width="34.76" height="14.07" rx="1.65"></rect><rect x="63.9" y="156.58" width="34.76" height="14.07" rx="1.65"></rect><rect x="118.21" y="65.5" width="34.76" height="14.07" rx="1.65"></rect><rect x="81.4" y="65.5" width="34.76" height="14.07" rx="1.65"></rect><rect x="118.21" y="100.01" width="34.76" height="14.07" rx="1.65"></rect><rect x="136.22" y="82.51" width="34.76" height="14.07" rx="1.65"></rect><rect x="99.2" y="82.51" width="34.76" height="14.07" rx="1.65"></rect><rect x="259.41" y="185.67" width="34.76" height="14.07" rx="1.65"></rect><rect x="259.41" y="220.17" width="34.76" height="14.07" rx="1.65"></rect><rect x="277.42" y="202.67" width="34.76" height="14.07" rx="1.65"></rect><rect x="240.39" y="202.67" width="34.76" height="14.07" rx="1.65"></rect><rect x="334.51" y="185.67" width="34.76" height="14.07" rx="1.65"></rect><rect x="297.7" y="185.67" width="34.76" height="14.07" rx="1.65"></rect><rect x="334.51" y="220.17" width="34.76" height="14.07" rx="1.65"></rect><rect x="352.52" y="202.67" width="34.76" height="14.07" rx="1.65"></rect><rect x="315.49" y="202.67" width="34.76" height="14.07" rx="1.65"></rect><rect x="360.05" y="303.58" width="34.76" height="14.07" rx="1.65"></rect><rect x="360.05" y="338.09" width="34.76" height="14.07" rx="1.65"></rect><rect x="378.06" y="320.58" width="34.76" height="14.07" rx="1.65"></rect><rect x="341.03" y="320.58" width="34.76" height="14.07" rx="1.65"></rect><rect x="435.15" y="303.58" width="34.76" height="14.07" rx="1.65"></rect><rect x="398.34" y="303.58" width="34.76" height="14.07" rx="1.65"></rect><rect x="435.15" y="338.09" width="34.76" height="14.07" rx="1.65"></rect><rect x="453.16" y="320.58" width="34.76" height="14.07" rx="1.65"></rect><rect x="416.13" y="320.58" width="34.76" height="14.07" rx="1.65"></rect><rect x="301.74" y="377.93" width="34.76" height="14.07" rx="1.65"></rect><rect x="301.74" y="412.44" width="34.76" height="14.07" rx="1.65"></rect><rect x="319.75" y="394.94" width="34.76" height="14.07" rx="1.65"></rect><rect x="282.72" y="394.94" width="34.76" height="14.07" rx="1.65"></rect><rect x="193.8" y="65.5" width="34.76" height="14.07" rx="1.65"></rect><rect x="193.8" y="100.01" width="34.76" height="14.07" rx="1.65"></rect><rect x="211.81" y="82.51" width="34.76" height="14.07" rx="1.65"></rect><rect x="174.78" y="82.51" width="34.76" height="14.07" rx="1.65"></rect></g></g><g id="freepik--Plants--inject-28"><path d="M108,228s.67,84.87.67,107.28S108,455.06,108,455.06" style="fill:none;stroke:#263238;stroke-linecap:round;stroke-linejoin:round;stroke-width:3px"></path><polygon points="158.95 249.68 137.9 232.03 196.98 238.82 144.69 221.84 198.34 212.34 137.9 212.34 184.75 177.03 131.79 203.51 162.35 151.23 121.61 198.08 135.87 129.5 109.38 193.32 106.67 122.03 101.23 194.68 72.34 130.5 92.41 200.79 49.19 153.65 86.98 211.66 33.48 173.49 83.58 221.84 26.86 190.86 78.83 225.92 31.83 219.79 77.47 232.71 40.92 238.81 78.83 237.46 56.42 252.4 109.38 238.14 158.95 249.68" style="fill:#009427"></polygon><polygon points="158.95 249.68 137.9 232.03 196.98 238.82 144.69 221.84 198.34 212.34 137.9 212.34 184.75 177.03 131.79 203.51 162.35 151.23 121.61 198.08 135.87 129.5 109.38 193.32 106.67 122.03 101.23 194.68 72.34 130.5 92.41 200.79 49.19 153.65 86.98 211.66 33.48 173.49 83.58 221.84 26.86 190.86 78.83 225.92 31.83 219.79 77.47 232.71 40.92 238.81 78.83 237.46 56.42 252.4 109.38 238.14 158.95 249.68" style="fill:#fff;opacity:0.30000000000000004"></polygon><polygon points="136.31 433.86 115.26 416.2 174.33 422.99 122.05 406.01 175.69 396.51 115.26 396.51 162.11 361.2 109.15 387.68 139.7 335.4 98.96 382.25 113.22 313.67 86.74 377.5 84.02 306.2 78.59 378.86 49.7 314.67 69.76 384.97 26.55 337.82 64.33 395.83 10.84 357.66 60.94 406.01 4.22 375.03 56.18 410.09 9.18 403.97 54.83 416.88 18.28 422.98 56.18 421.63 33.78 436.57 86.74 422.31 136.31 433.86" style="fill:#009427"></polygon><polygon points="136.31 433.86 115.26 416.2 174.33 422.99 122.05 406.01 175.69 396.51 115.26 396.51 162.11 361.2 109.15 387.68 139.7 335.4 98.96 382.25 113.22 313.67 86.74 377.5 84.02 306.2 78.59 378.86 49.7 314.67 69.76 384.97 26.55 337.82 64.33 395.83 10.84 357.66 60.94 406.01 4.22 375.03 56.18 410.09 9.18 403.97 54.83 416.88 18.28 422.98 56.18 421.63 33.78 436.57 86.74 422.31 136.31 433.86" style="fill:#fff;opacity:0.30000000000000004"></polygon><path d="M87.65,313.51s-2,17.66-.67,24.45a124.64,124.64,0,0,1,2,23.76c0,8.83.68,9.51.68,15.62s-.68,58-.68,62.78V454.9" style="fill:none;stroke:#263238;stroke-linecap:round;stroke-linejoin:round;stroke-width:3px"></path><path d="M89.69,370.55s2.72-14.94,5.43-21.73,4.76-4.75,5.44-12.9.68-11.54,2-14.26a55.81,55.81,0,0,0,2.72-7.47l1.36-5.43" style="fill:none;stroke:#263238;stroke-linecap:round;stroke-linejoin:round;stroke-width:3px"></path><polygon points="137.9 331.17 116.85 313.51 175.93 320.3 123.64 303.33 177.28 293.82 116.85 293.82 163.71 258.51 110.74 284.99 141.3 232.71 100.56 279.56 114.82 210.98 88.33 274.81 85.62 203.51 80.19 276.17 59.14 210.3 71.36 282.28 34.01 228.63 65.93 293.14 16.94 261.14 62.53 303.33 11.98 282.63 57.78 307.4 10.33 303.3 56.42 314.19 24.39 321.49 57.78 318.94 35.37 333.88 88.33 319.62 137.9 331.17" style="fill:#009427"></polygon><polygon points="137.9 331.17 116.85 313.51 175.93 320.3 123.64 303.33 177.28 293.82 116.85 293.82 163.71 258.51 110.74 284.99 141.3 232.71 100.56 279.56 114.82 210.98 88.33 274.81 85.62 203.51 80.19 276.17 59.14 210.3 71.36 282.28 34.01 228.63 65.93 293.14 16.94 261.14 62.53 303.33 11.98 282.63 57.78 307.4 10.33 303.3 56.42 314.19 24.39 321.49 57.78 318.94 35.37 333.88 88.33 319.62 137.9 331.17" style="fill:#fff;opacity:0.30000000000000004"></polygon></g><g id="freepik--Table--inject-28"><line x1="12.04" y1="456.42" x2="490.71" y2="456.42" style="fill:none;stroke:#263238;stroke-miterlimit:10"></line></g><g id="freepik--Hanger--inject-28"><path d="M475.42,73.44H318.73a4.89,4.89,0,0,0-4.88,4.88v1.44a4.89,4.89,0,0,0,4.88,4.89h29.68l1.72,51.84c-4.57,1.4-7.85,7-7.85,13.46,0,7.05,4.25,20.6,10.06,20.6S362.41,157,362.41,150c0-6.39-3.22-11.95-7.72-13.42l2-51.88h17.91l1.76,70.79c-4.57,1.4-7.85,7-7.85,13.46,0,7,4.25,20.6,10.06,20.6s10.07-13.55,10.07-20.6c0-6.39-3.23-12-7.72-13.42L383,84.65h17.84L402.62,170c-4.58,1.39-7.86,7-7.86,13.46,0,7.05,4.25,20.6,10.06,20.6s10.07-13.55,10.07-20.6c0-6.4-3.23-12-7.72-13.42l2.08-85.41h17.86l1.68,56.94a15.7,15.7,0,1,0,4.69.08l2-57h17.93l1.72,51.84c-4.57,1.4-7.85,7-7.85,13.46,0,7.05,4.25,20.6,10.06,20.6S467.37,157,467.37,150c0-6.39-3.23-11.95-7.72-13.42l2-51.88h13.76a4.89,4.89,0,0,0,4.89-4.89V78.32A4.89,4.89,0,0,0,475.42,73.44ZM318.73,83.65a3.89,3.89,0,0,1-3.88-3.89V78.32a3.88,3.88,0,0,1,3.88-3.88h31.44l-.25.22a6.87,6.87,0,0,0-1.67,5l.13,4Zm38,0,.16-4.12a6.87,6.87,0,0,0-1.71-4.91c-.07-.07-.14-.12-.21-.18h21.44l-.25.22a6.87,6.87,0,0,0-1.67,5l.09,4Zm26.28,0,.12-4.12a6.87,6.87,0,0,0-1.71-4.91c-.07-.07-.14-.12-.21-.18h21.44l-.25.22a6.87,6.87,0,0,0-1.67,5l.08,4Zm26.26,0,.1-4.12a6.87,6.87,0,0,0-1.71-4.91l-.21-.18h21.44l-.25.22a6.92,6.92,0,0,0-1.68,5l.12,4Zm26.2,0,.14-4.12a6.87,6.87,0,0,0-1.71-4.91c-.07-.07-.14-.12-.21-.18h21.43l-.24.22a6.87,6.87,0,0,0-1.67,5l.13,4Zm43.84-3.89a3.89,3.89,0,0,1-3.89,3.89H461.69l.16-4.12a6.87,6.87,0,0,0-1.71-4.91c-.07-.07-.14-.12-.21-.18h15.49a3.89,3.89,0,0,1,3.89,3.88Z" style="opacity:0.30000000000000004"></path></g><g id="freepik--Character--inject-28"><path d="M336.92,455.88,315.67,319.49s39.53,29.58,42.85,28.75,11.61-16.59,11.61-16.59a47.7,47.7,0,0,0,.28-22.11C367.65,297.65,359.35,262,359.35,262l-21.56-2.21-1.11,9.4s-22.95-44.51-24.33-47-17.14.55-23,.55-22.11-5-22.11-5l-59.72-.83s-36.77,5.53-38.71,9.12-5,18.25-5.25,19.36-32.35,39.53-40.37,51.42-7.74,42.85-.83,45.89,23.5-1.93,27.93-6.91,14.93-16.31,18.8-23.22,5-13.27,7.19-16,8.29-10.78,8.29-10.78,7.42,42.94,5.64,85.91c-1.18,28.57-6.58,80.62-6,85" style="fill:#009427;stroke:#263238;stroke-linecap:round;stroke-linejoin:round"></path><path d="M238.81,241.8s-12.17,1.38-12.72,3.6S241.39,443,241.39,443" style="fill:none;stroke:#263238;stroke-linecap:round;stroke-linejoin:round"></path><circle cx="237.02" cy="252.28" r="2.28" style="fill:#263238"></circle><path d="M273.82,247.73a2.28,2.28,0,1,1-2.27-2.28A2.28,2.28,0,0,1,273.82,247.73Z" style="fill:#263238"></path><path d="M241.19,284.91a2.28,2.28,0,1,1-2.27-2.27A2.28,2.28,0,0,1,241.19,284.91Z" style="fill:#263238"></path><path d="M243.09,317.55a2.28,2.28,0,1,1-2.28-2.28A2.28,2.28,0,0,1,243.09,317.55Z" style="fill:#263238"></path><path d="M245,350.18a2.28,2.28,0,1,1-2.28-2.28A2.28,2.28,0,0,1,245,350.18Z" style="fill:#263238"></path><path d="M279.51,345.62a2.28,2.28,0,1,1-2.27-2.27A2.28,2.28,0,0,1,279.51,345.62Z" style="fill:#263238"></path><path d="M246.88,382.81a2.28,2.28,0,1,1-2.27-2.28A2.27,2.27,0,0,1,246.88,382.81Z" style="fill:#263238"></path><path d="M281.41,378.25a2.28,2.28,0,1,1-2.28-2.27A2.28,2.28,0,0,1,281.41,378.25Z" style="fill:#263238"></path><path d="M141.46,311s6.59,5.65,8.79,16.64" style="fill:none;stroke:#263238;stroke-linecap:round;stroke-linejoin:round"></path><path d="M142.4,307.9s11,2.82,15.38,8.79" style="fill:none;stroke:#263238;stroke-linecap:round;stroke-linejoin:round"></path><path d="M125.21,281.76s-10,11.35-15.29,17.84-10.66,10.19-9.5,14.59-.92,19.7,11.82,25.95,20.16,5.1,22.24,3.71,12.28-22.94,12.28-22.94-2.08-15.52-4.86-19.92S125.21,281.76,125.21,281.76Z" style="fill:#009427;stroke:#263238;stroke-linecap:round;stroke-linejoin:round"></path><path d="M125.21,281.76s-10,11.35-15.29,17.84c-1.51,1.84-3,3.45-4.39,4.93,1.4,4.33,4.7,11.13,12.49,17.69,6.93,5.85,15.83,9.34,22.53,11.32,3.13-6.1,6.21-12.63,6.21-12.63s-2.08-15.52-4.86-19.92S125.21,281.76,125.21,281.76Z" style="fill:#263238;stroke:#263238;stroke-linecap:round;stroke-linejoin:round"></path><path d="M125.21,281.76l-6.67,13.4s5.94,15.81,16,21a47.34,47.34,0,0,0,12.18,4.74s-2.08-15.52-4.86-19.92S125.21,281.76,125.21,281.76Z" style="fill:none;stroke:#263238;stroke-linecap:round;stroke-linejoin:round"></path><path d="M113.21,232.38a10.91,10.91,0,0,0-2.73,5.21c-.49,3,7.2,9.92,7.2,9.92l3.22-3s-5.21-3.72-6.45-6.7,1.74-6.7,1.74-6.7A2.84,2.84,0,0,0,113.21,232.38Z" style="fill:#263238;stroke:#263238;stroke-linecap:round;stroke-linejoin:round"></path><path d="M113.21,232.38s84.32,64.24,87.55,66.72l5.21.25s-88.29-67.71-89.78-68.21S113.21,232.38,113.21,232.38Z" style="fill:#c4c4c4;stroke:#263238;stroke-linecap:round;stroke-linejoin:round"></path><path d="M200.76,299.1s10.66,10.41,24.3,13.39,21.69-8,23.81-11.41a33.84,33.84,0,0,0,4.46-12.65Z" style="fill:#c4c4c4;stroke:#263238;stroke-linecap:round;stroke-linejoin:round"></path><path d="M134.58,252.58l-.56,1.86-7.74,25.79-7.74,14.93s.56,8.29,4.7,13.27,11.34,7.74,11.34,7.74l9.68-19.07s6.63-.83,9.67-3.05,12.44-5,12.72-7.18a8.86,8.86,0,0,0-.55-4.15s1.1-3.6.83-5.25l-.28-1.66a34.62,34.62,0,0,0-.28-4.43l-.27-1.66a13,13,0,0,0-.56-6.08c-1.1-3-2.21-3.32-4.7-4.14s-17.14-5-19.07-5.53C141.77,254,138,250.52,134.58,252.58Z" style="fill:#fff;stroke:#263238;stroke-linecap:round;stroke-linejoin:round"></path><path d="M137.14,263.81a3.65,3.65,0,0,1,2.4.57c1.49.8,2.52,1.72,13.86,2.52s12.7,2.82,12.7,2.82" style="fill:none;stroke:#263238;stroke-linecap:round;stroke-linejoin:round"></path><path d="M143.37,275.57c4.37.34,9.76.72,12.1.72,4.23,0,10.68-1,11.18-.48" style="fill:none;stroke:#263238;stroke-linecap:round;stroke-linejoin:round"></path><path d="M136.91,275l3.36.29" style="fill:none;stroke:#263238;stroke-linecap:round;stroke-linejoin:round"></path><line x1="144.81" y1="288.21" x2="166.1" y2="282.72" style="fill:none;stroke:#263238;stroke-linecap:round;stroke-linejoin:round"></line><path d="M136.33,293.59c1.95.58,6.19,2.29,6.19,2.29" style="fill:none;stroke:#263238;stroke-linecap:round;stroke-linejoin:round"></path><path d="M128.54,280a29.88,29.88,0,0,0-.11,4.12c.11,1.84,2.52,4.82,2.52,4.82s.86,1,2,2.13" style="fill:none;stroke:#263238;stroke-linecap:round;stroke-linejoin:round"></path><path d="M141.77,254s.86-5.28,2.58-5.86,6.19-1.26,6.65-.23,4.47,6.65,4.81,8a2.79,2.79,0,0,1,0,2Z" style="fill:#fff;stroke:#263238;stroke-linecap:round;stroke-linejoin:round"></path><line x1="178.33" y1="253.06" x2="177.11" y2="246.77" style="fill:none;stroke:#263238;stroke-linecap:round;stroke-linejoin:round"></line><line x1="184.62" y1="285.76" x2="179.48" y2="259.05" style="fill:none;stroke:#263238;stroke-linecap:round;stroke-linejoin:round"></line><path d="M315.67,319.49s-3.48-42.14-3.48-52.1-.69-32.9-.69-32.9" style="fill:none;stroke:#263238;stroke-linecap:round;stroke-linejoin:round"></path><line x1="318.69" y1="270.62" x2="314.05" y2="284.07" style="fill:none;stroke:#263238;stroke-linecap:round;stroke-linejoin:round"></line><line x1="321" y1="263.92" x2="319.83" y2="267.3" style="fill:none;stroke:#263238;stroke-linecap:round;stroke-linejoin:round"></line><path d="M325.93,312.37c-.67,4-.87,6.88-.3,7.62,2.55,3.24,7.65,5.79,7.65,5.79" style="fill:none;stroke:#263238;stroke-linecap:round;stroke-linejoin:round"></path><path d="M335.83,271.79s-5.78,20.37-8.77,34.68" style="fill:none;stroke:#263238;stroke-linecap:round;stroke-linejoin:round"></path><path d="M323.78,320.91s7.41,9.5,12.05,10.2" style="fill:none;stroke:#263238;stroke-linecap:round;stroke-linejoin:round"></path><path d="M337,266.7s5.33,11.35,10.89,13.67S362,272.26,362,272.26l4.4,20.15s-5.33,7.42-9.5,10.2-12.05,1.62-15.52-3.48-7.88-17.61-7.88-17.61Z" style="fill:#263238;stroke:#263238;stroke-linecap:round;stroke-linejoin:round"></path><path d="M337,266.7s.46-19.47-.24-24.8-6.25-31.74-6.95-34.75.93-7.88,1.86-11.12-.23-8.81,1.39-9,3.94,1.86,4.4,5.79a36.76,36.76,0,0,1,.23,6.72V203l7.88-1.85s19.93,11.81,20.16,13.9-10.2,20.39-10.89,22S362,272.26,362,272.26s-4.87,7.87-10.19,10.66-8.35-1.16-10.2-5.33S337,266.7,337,266.7Z" style="fill:#fff;stroke:#263238;stroke-linecap:round;stroke-linejoin:round"></path><path d="M353.44,200.43s-3-11.35-3.94-14.36-1.16-13.44-3-13-3,1.85-3.25,9.73a71.42,71.42,0,0,0,1.39,15.29Z" style="fill:#fff;stroke:#263238;stroke-linecap:round;stroke-linejoin:round"></path><path d="M359.92,206.45s-1.15-3.7-3.47-4.63-11.82-6.26-13-6.26-5.33,9.74-6.72,11.59a1.91,1.91,0,0,0,1.39,3.24c1.16,0,7.65-7.41,7.65-7.41l3.48.69Z" style="fill:#fff;stroke:#263238;stroke-linecap:round;stroke-linejoin:round"></path><path d="M363.86,210.86a18.22,18.22,0,0,0-1.85-3.25c-.93-1.16-12.51-6.72-13.67-6.25s-4.4,9-6,12-1.86,4.86-.24,4.4a25.07,25.07,0,0,0,7.42-4.4c1.62-1.63,5.56-6,5.56-6Z" style="fill:#fff;stroke:#263238;stroke-linecap:round;stroke-linejoin:round"></path><path d="M365.72,215s-.93-3.25-1.86-4.17-6.95-5.1-8.11-6.26-3,2.55-3.93,3.71a79.68,79.68,0,0,0-5.8,8.57c-.69,1.62,1.39,2.78,2.78,2.32s7.88-6.26,7.88-6.26" style="fill:#fff;stroke:#263238;stroke-linecap:round;stroke-linejoin:round"></path><path d="M342.32,229.39s-.24,4.87,2.08,7.42,7,3.47,7,3.47" style="fill:none;stroke:#263238;stroke-linecap:round;stroke-linejoin:round"></path><path d="M288.3,118.49s11.89-6.08,12.72-20.18S287.19,66.79,267.29,61s-43.41-1.38-55.85,6.36S184.9,87,178,105s-5.53,37.87,4.7,42,27.64,6.36,35.66,4.7,19.08-16.59,32.35-20.46,25.43-6.08,28.75-7.46A64.73,64.73,0,0,0,288.3,118.49Z" style="fill:#009427;stroke:#263238;stroke-linecap:round;stroke-linejoin:round"></path><path d="M201.26,132.69s-9.64,9.13-14.2,9.9" style="fill:none;stroke:#263238;stroke-linecap:round;stroke-linejoin:round"></path><path d="M181.48,119.24s12.93,6.35,19,4.83" style="fill:none;stroke:#263238;stroke-linecap:round;stroke-linejoin:round"></path><path d="M195.94,97.43s11.41,8.11,19.53,5.32" style="fill:none;stroke:#263238;stroke-linecap:round;stroke-linejoin:round"></path><path d="M245.66,75.1s-1.52,15.48-6.85,17.76" style="fill:none;stroke:#263238;stroke-linecap:round;stroke-linejoin:round"></path><path d="M262.92,94.13S272.81,89.31,275.6,84" style="fill:none;stroke:#263238;stroke-linecap:round;stroke-linejoin:round"></path><path d="M297.67,103.52s-12.43,4.56-18.26,2.28" style="fill:none;stroke:#263238;stroke-linecap:round;stroke-linejoin:round"></path><path d="M208.67,152.5s-1.66,6.36-2.48,11.61,14.92,12.72,14.92,12.72,7.19,2.49-7.18,7.74-26,11.61-32.07,23-1.94,24.88,6.35,29.86a16.35,16.35,0,0,1,0-6.64,24.83,24.83,0,0,1,1.94-4.7s.28,10.51,7.46,14.93,16,13.83,13.28,17.42L208.12,262s9.12,1.66,15.48-3.87,6.36-18.24,3.6-27.37-8.3-16-5-24.88,13.55-20.46,13-27.09-23.51-37.05-23.51-37.05Z" style="fill:#263238;stroke:#263238;stroke-linecap:round;stroke-linejoin:round"></path><path d="M280,109.09s8.3,18,8.85,24.61-1.38,9.12-.55,11.06,5.25,14.65,3,23-10.78,25.71-13.55,27.64-19.35-1.93-19.35-1.93.55,10.78,1.66,15.2A67,67,0,0,0,264,218.85a27.22,27.22,0,0,1-5.81,12.45c-4.7,5.25-8.29,7.46-11.89,7.74s-20.46-17.42-20.73-19.36,2.21-18.8,2.21-29-4.15-23.5-4.15-23.5-7.74-5.53-9.67-11.88a61.94,61.94,0,0,1-2.22-13.55l-.82-7.47s13.82-22.11,36.21-27.09S280,109.09,280,109.09Z" style="fill:#fff;stroke:#263238;stroke-linecap:round;stroke-linejoin:round"></path><path d="M272.82,129.55s-4.43,3.6-.83,10.79" style="fill:none;stroke:#263238;stroke-linecap:round;stroke-linejoin:round"></path><path d="M281.39,156.37s-3.87,3-6.64,3.32" style="fill:none;stroke:#263238;stroke-linecap:round;stroke-linejoin:round"></path><path d="M281.11,164.39s-9.12,5-21.29-1.38c0,0,6.36,10,11.89,10S281.11,164.39,281.11,164.39Z" style="fill:none;stroke:#263238;stroke-linecap:round;stroke-linejoin:round"></path><path d="M262.59,128.72S256,126,250.14,127.07a11.49,11.49,0,0,0-8,6.08" style="fill:none;stroke:#263238;stroke-linecap:round;stroke-linejoin:round"></path><path d="M274.75,127.62s8.57-4.43,11.34,1.93" style="fill:none;stroke:#263238;stroke-linecap:round;stroke-linejoin:round"></path><path d="M254,142.19c.2,2.21-.69,4.09-2,4.21s-2.5-1.57-2.71-3.78.69-4.08,2-4.2S253.8,140,254,142.19Z" style="fill:#263238"></path><path d="M278.89,140.54c.2,2.2-.68,4.08-2,4.2s-2.5-1.57-2.7-3.77.68-4.09,2-4.21S278.69,138.33,278.89,140.54Z" style="fill:#263238"></path><path d="M217.24,135.36s7.47,11.33,8.57,8.85.83-13.55.83-14.38S221.67,130.66,217.24,135.36Z" style="fill:#263238;stroke:#263238;stroke-linecap:round;stroke-linejoin:round"></path><polygon points="258.44 193.42 244.34 189.82 258.44 201.16 258.44 193.42" style="fill:#263238;stroke:#263238;stroke-linecap:round;stroke-linejoin:round"></polygon><path d="M223.6,167.15s3,1.39,4.43-2.21" style="fill:none;stroke:#263238;stroke-linecap:round;stroke-linejoin:round"></path><path d="M208.67,152.5a74.84,74.84,0,0,1,30.69-29C260.65,112.69,284,119,284,119s-6.73-17.36-8.39-19.85S254.84,88.08,231.34,95s-31.51,31.25-31.24,33.46S208.67,152.5,208.67,152.5Z" style="fill:#009427;stroke:#263238;stroke-linecap:round;stroke-linejoin:round"></path><path d="M224.43,206.41a43,43,0,0,0,10.51,10c6.91,4.7,10.5,5.25,11.33,8.29s3.87,16,.83,16.31-14.37-.27-19.9-10.23S221.39,212.22,224.43,206.41Z" style="fill:#263238;stroke:#263238;stroke-linecap:round;stroke-linejoin:round"></path><path d="M254,221.34s-1.39,16,.55,16.59,11.33-6.36,14.37-11.33,2.22-7.75,1.39-10.51-2.21-7.74-4.15-6.91S260.37,218.3,254,221.34Z" style="fill:#263238;stroke:#263238;stroke-linecap:round;stroke-linejoin:round"></path><path d="M266.91,308.28a19.74,19.74,0,0,0,.23-3.1c0-8.12-4-8.12-4-16.25s4-8.14,4-16.27-4-8.13-4-16.27" style="fill:none;stroke:#263238;stroke-miterlimit:10"></path><path d="M263.14,321.45c0-4.69,1.33-6.67,2.45-9.07" style="fill:none;stroke:#263238;stroke-miterlimit:10"></path><path d="M282.16,269c-1-4.76-3.68-5.94-3.68-12.65" style="fill:none;stroke:#263238;stroke-miterlimit:10"></path><path d="M278.48,321.45c0-8.13,4-8.13,4-16.27s-4-8.12-4-16.25c0-6.1,2.25-7.63,3.38-11.44" style="fill:none;stroke:#263238;stroke-miterlimit:10"></path><path d="M295.68,281.09a16.28,16.28,0,0,0,2.15-8.43c0-8.13-4-8.13-4-16.27" style="fill:none;stroke:#263238;stroke-miterlimit:10"></path><path d="M293.83,321.45c0-8.13,4-8.13,4-16.27s-4-8.12-4-16.25a16.81,16.81,0,0,1,.57-4.65" style="fill:none;stroke:#263238;stroke-miterlimit:10"></path></g><g id="freepik--Pots--inject-28"><path d="M179.32,350.42a3.89,3.89,0,0,1-1.8-.44l-21.74-11a4,4,0,0,1,3.61-7.11l21.74,11a4,4,0,0,1-1.81,7.55Z" style="fill:#263238"></path><path d="M315.52,350.42a3.89,3.89,0,0,0,1.8-.44l21.74-11a4,4,0,1,0-3.62-7.11l-21.73,11a4,4,0,0,0,1.81,7.55Z" style="fill:#263238"></path><path d="M175.63,327.91H317.22a0,0,0,0,1,0,0V442.1a14.32,14.32,0,0,1-14.32,14.32H190a14.32,14.32,0,0,1-14.32-14.32V327.91A0,0,0,0,1,175.63,327.91Z" style="fill:#a6a6a6;stroke:#263238;stroke-miterlimit:10"></path><path d="M195.71,440.09V327.91H182.55V440.09a16.33,16.33,0,0,0,16.33,16.33H212A16.33,16.33,0,0,1,195.71,440.09Z" style="fill:#263238;stroke:#263238;stroke-miterlimit:10"></path><path d="M297.14,327.91V440.09a16.33,16.33,0,0,1-16.33,16.33H294a16.33,16.33,0,0,0,16.32-16.33V327.91Z" style="fill:#263238;stroke:#263238;stroke-miterlimit:10"></path><path d="M279.63,429.54a9.7,9.7,0,0,1-5.55-8.74c-.3-15.51,3.1-79.27,6.33-84.55,3.79-6.21,11.38,60.2,10.35,75.73C289.93,424.4,286.2,432.49,279.63,429.54Z" style="fill:#fff"></path><rect x="172.77" y="325.38" width="147.31" height="4.83" rx="2.12" style="fill:#263238"></rect><circle cx="412.76" cy="356.67" r="8.12" style="fill:#263238;stroke:#263238;stroke-miterlimit:10"></circle><path d="M459.93,372.14c-.9-8.6-21.67-15.47-47.17-15.47s-46.27,6.87-47.17,15.47Z" style="fill:#a6a6a6;stroke:#263238;stroke-miterlimit:10"></path><path d="M368,386.24a2.55,2.55,0,0,1-1.19-.29l-14.39-7.31a2.64,2.64,0,1,1,2.39-4.7l14.39,7.31a2.64,2.64,0,0,1-1.2,5Z" style="fill:#263238"></path><path d="M458.16,386.24a2.55,2.55,0,0,0,1.19-.29l14.39-7.31a2.64,2.64,0,1,0-2.39-4.7L457,381.25a2.64,2.64,0,0,0,1.2,5Z" style="fill:#263238"></path><path d="M365.55,371.34h93.74a0,0,0,0,1,0,0V442.1A14.32,14.32,0,0,1,445,456.42H379.87a14.32,14.32,0,0,1-14.32-14.32V371.34A0,0,0,0,1,365.55,371.34Z" style="fill:#a6a6a6;stroke:#263238;stroke-miterlimit:10"></path><path d="M378.84,445.61V371.34h-8.71v74.27a10.81,10.81,0,0,0,10.81,10.81h8.71A10.81,10.81,0,0,1,378.84,445.61Z" style="fill:#263238;stroke:#263238;stroke-miterlimit:10"></path><path d="M446,371.34v74.27a10.81,10.81,0,0,1-10.81,10.81h8.72a10.8,10.8,0,0,0,10.8-10.81V371.34Z" style="fill:#263238;stroke:#263238;stroke-miterlimit:10"></path><path d="M434.4,438.62a6.41,6.41,0,0,1-3.67-5.78c-.2-10.27,2-52.48,4.18-56,2.52-4.11,7.54,39.86,6.86,50.14C441.22,435.22,438.75,440.58,434.4,438.62Z" style="fill:#fff"></path><rect x="363.65" y="369.67" width="97.53" height="3.2" rx="1.6" style="fill:#263238"></rect><path d="M453.23,368.81s-10.36-9.9-33.09-9.43c0,0,12,2.32,18.56,8.89Z" style="fill:#fff"></path></g></svg>
